P3
# CREATOR: GIMP PNM Filter Version 1.1
36 36
255
150
200
150
150
200
150
150
200
150
150
200
150
6
118
0
150
200
150
150
200
150
150
200
150
150
200
150
150
200
150
6
118
0
6
118
0
6
118
0
6
118
0
6
118
0
6
118
0
6
118
0
6
118
0
6
118
0
6
118
0
6
118
0
6
118
0
6
118
0
6
118
0
6
118
0
6
118
0
6
118
0
6
118
0
6
118
0
6
118
0
6
118
0
6
118
0
6
118
0
6
118
0
6
118
0
6
118
0
6
118
0
6
118
0
6
118
0
6
118
0
6
118
0
6
118
0
150
200
150
6
118
0
6
118
0
6
118
0
6
118
0
6
118
0
6
118
0
6
118
0
6
118
0
6
118
0
6
118
0
6
118
0
6
118
0
6
118
0
6
118
0
6
118
0
6
118
0
6
118
0
6
118
0
6
118
0
6
118
0
6
118
0
6
118
0
6
118
0
6
118
0
6
118
0
6
118
0
6
118
0
6
118
0
6
118
0
6
118
0
6
118
0
6
118
0
6
118
0
6
118
0
6
118
0
6
118
0
6
118
0
6
118
0
6
118
0
6
118
0
6
118
0
6
118
0
6
118
0
6
118
0
6
118
0
6
118
0
6
118
0
6
118
0
6
118
0
6
118
0
6
118
0
6
118
0
6
118
0
6
118
0
6
118
0
6
118
0
6
118
0
6
118
0
6
118
0
6
118
0
6
118
0
6
118
0
6
118
0
6
118
0
6
118
0
6
118
0
6
118
0
6
118
0
6
118
0
70
70
70
70
70
70
70
70
70
6
118
0
6
118
0
6
118
0
6
118
0
6
118
0
6
118
0
6
118
0
6
118
0
6
118
0
6
118
0
6
118
0
6
118
0
6
118
0
255
255
0
6
118
0
6
118
0
6
118
0
6
118
0
6
118
0
6
118
0
6
118
0
6
118
0
6
118
0
0
72
255
6
118
0
6
118
0
6
118
0
6
118
0
6
118
0
6
118
0
6
118
0
6
118
0
6
118
0
70
70
70
65
65
65
70
70
70
6
118
0
6
118
0
6
118
0
6
118
0
6
118
0
6
118
0
6
118
0
6
118
0
6
118
0
6
118
0
6
118
0
6
118
0
103
103
78
103
103
78
6
118
0
6
118
0
6
118
0
6
118
0
6
118
0
6
118
0
6
118
0
6
118
0
6
118
0
103
103
78
6
118
0
6
118
0
6
118
0
6
118
0
6
118
0
6
118
0
6
118
0
6
118
0
6
118
0
6
118
0
103
103
78
6
118
0
6
118
0
6
118
0
6
118
0
6
118
0
6
118
0
6
118
0
6
118
0
6
118
0
6
118
0
6
118
0
6
118
0
103
103
78
103
103
78
6
118
0
6
118
0
6
118
0
6
118
0
6
118
0
6
118
0
6
118
0
6
118
0
6
118
0
6
118
0
103
103
78
6
118
0
6
118
0
6
118
0
6
118
0
6
118
0
6
118
0
6
118
0
6
118
0
6
118
0
6
118
0
103
103
78
6
118
0
6
118
0
6
118
0
6
118
0
6
118
0
6
118
0
6
118
0
6
118
0
6
118
0
6
118
0
6
118
0
103
103
78
103
103
78
6
118
0
6
118
0
6
118
0
6
118
0
6
118
0
6
118
0
6
118
0
6
118
0
6
118
0
6
118
0
6
118
0
103
103
78
6
118
0
6
118
0
6
118
0
6
118
0
6
118
0
6
118
0
6
118
0
6
118
0
6
118
0
0
72
255
103
103
78
6
118
0
6
118
0
6
118
0
6
118
0
6
118
0
6
118
0
6
118
0
6
118
0
6
118
0
255
255
255
255
255
255
103
103
78
6
118
0
6
118
0
6
118
0
6
118
0
6
118
0
70
70
70
70
70
70
70
70
70
6
118
0
6
118
0
6
118
0
6
118
0
103
103
78
6
118
0
6
118
0
6
118
0
6
118
0
6
118
0
6
118
0
6
118
0
6
118
0
6
118
0
103
103
78
103
103
78
103
103
78
103
103
78
103
103
78
103
103
78
255
255
255
255
255
255
255
255
255
255
255
255
255
255
255
255
255
255
6
118
0
103
103
78
6
118
0
6
118
0
6
118
0
6
118
0
6
118
0
70
70
70
65
65
65
70
70
70
6
118
0
6
118
0
6
118
0
6
118
0
103
103
78
6
118
0
6
118
0
6
118
0
6
118
0
6
118
0
6
118
0
6
118
0
6
118
0
6
118
0
6
118
0
6
118
0
6
118
0
6
118
0
6
118
0
103
103
78
6
118
0
6
118
0
6
118
0
6
118
0
6
118
0
6
118
0
6
118
0
103
103
78
6
118
0
6
118
0
6
118
0
6
118
0
6
118
0
6
118
0
103
103
78
6
118
0
6
118
0
6
118
0
103
103
78
103
103
78
103
103
78
103
103
78
6
118
0
6
118
0
6
118
0
6
118
0
6
118
0
6
118
0
6
118
0
6
118
0
6
118
0
6
118
0
6
118
0
6
118
0
6
118
0
103
103
78
6
118
0
6
118
0
6
118
0
6
118
0
6
118
0
6
118
0
6
118
0
103
103
78
6
118
0
255
0
0
6
118
0
6
118
0
103
103
78
103
103
78
103
103
78
103
103
78
103
103
78
103
103
78
103
103
78
6
118
0
6
118
0
103
103
78
6
118
0
6
118
0
6
118
0
6
118
0
255
255
255
6
118
0
6
118
0
6
118
0
6
118
0
6
118
0
6
118
0
6
118
0
6
118
0
103
103
78
255
0
0
6
118
0
6
118
0
6
118
0
6
118
0
6
118
0
6
118
0
103
103
78
103
103
78
103
103
78
6
118
0
6
118
0
103
103
78
6
118
0
6
118
0
6
118
0
6
118
0
6
118
0
6
118
0
6
118
0
6
118
0
103
103
78
6
118
0
6
118
0
255
0
0
6
118
0
255
255
255
255
255
255
6
118
0
6
118
0
6
118
0
6
118
0
6
118
0
6
118
0
103
103
78
103
103
78
103
103
78
6
118
0
6
118
0
6
118
0
6
118
0
6
118
0
6
118
0
6
118
0
6
118
0
103
103
78
103
103
78
103
103
78
103
103
78
6
118
0
6
118
0
6
118
0
6
118
0
6
118
0
6
118
0
6
118
0
6
118
0
103
103
78
103
103
78
103
103
78
103
103
78
6
118
0
255
255
255
255
255
255
6
118
0
6
118
0
6
118
0
6
118
0
6
118
0
103
103
78
103
103
78
6
118
0
6
118
0
6
118
0
6
118
0
6
118
0
6
118
0
6
118
0
6
118
0
6
118
0
6
118
0
6
118
0
6
118
0
103
103
78
6
118
0
6
118
0
6
118
0
6
118
0
6
118
0
6
118
0
6
118
0
6
118
0
6
118
0
6
118
0
6
118
0
6
118
0
6
118
0
6
118
0
255
255
255
6
118
0
6
118
0
6
118
0
6
118
0
6
118
0
6
118
0
103
103
78
6
118
0
6
118
0
6
118
0
6
118
0
6
118
0
6
118
0
6
118
0
6
118
0
6
118
0
6
118
0
6
118
0
6
118
0
6
118
0
103
103
78
6
118
0
6
118
0
6
118
0
6
118
0
6
118
0
6
118
0
6
118
0
6
118
0
6
118
0
6
118
0
6
118
0
6
118
0
6
118
0
6
118
0
6
118
0
6
118
0
6
118
0
6
118
0
6
118
0
255
255
0
6
118
0
103
103
78
6
118
0
6
118
0
6
118
0
6
118
0
6
118
0
6
118
0
6
118
0
6
118
0
6
118
0
6
118
0
6
118
0
6
118
0
6
118
0
103
103
78
6
118
0
6
118
0
6
118
0
6
118
0
6
118
0
6
118
0
6
118
0
6
118
0
6
118
0
6
118
0
6
118
0
6
118
0
6
118
0
6
118
0
6
118
0
6
118
0
6
118
0
6
118
0
6
118
0
103
103
78
103
103
78
103
103
78
103
103
78
103
103
78
103
103
78
103
103
78
6
118
0
6
118
0
6
118
0
6
118
0
255
255
0
6
118
0
6
118
0
6
118
0
6
118
0
103
103
78
103
103
78
103
103
78
6
118
0
6
118
0
6
118
0
6
118
0
6
118
0
6
118
0
6
118
0
6
118
0
6
118
0
6
118
0
6
118
0
6
118
0
6
118
0
6
118
0
6
118
0
6
118
0
6
118
0
6
118
0
6
118
0
6
118
0
6
118
0
6
118
0
6
118
0
103
103
78
103
103
78
6
118
0
6
118
0
6
118
0
6
118
0
6
118
0
6
118
0
6
118
0
6
118
0
103
103
78
6
118
0
103
103
78
103
103
78
103
103
78
103
103
78
103
103
78
6
118
0
6
118
0
6
118
0
6
118
0
6
118
0
6
118
0
6
118
0
255
255
255
6
118
0
6
118
0
6
118
0
6
118
0
6
118
0
6
118
0
6
118
0
6
118
0
6
118
0
6
118
0
6
118
0
6
118
0
103
103
78
6
118
0
6
118
0
6
118
0
6
118
0
6
118
0
6
118
0
6
118
0
6
118
0
103
103
78
6
118
0
6
118
0
6
118
0
6
118
0
6
118
0
103
103
78
103
103
78
103
103
78
6
118
0
6
118
0
255
255
255
255
255
255
255
255
255
255
255
255
6
118
0
6
118
0
6
118
0
6
118
0
6
118
0
6
118
0
6
118
0
6
118
0
6
118
0
6
118
0
6
118
0
6
118
0
103
103
78
6
118
0
6
118
0
6
118
0
6
118
0
6
118
0
6
118
0
6
118
0
6
118
0
103
103
78
6
118
0
0
72
255
6
118
0
6
118
0
6
118
0
6
118
0
6
118
0
103
103
78
6
118
0
255
255
255
255
255
255
6
118
0
6
118
0
6
118
0
6
118
0
6
118
0
6
118
0
6
118
0
6
118
0
6
118
0
6
118
0
6
118
0
6
118
0
6
118
0
6
118
0
6
118
0
103
103
78
6
118
0
6
118
0
6
118
0
6
118
0
6
118
0
6
118
0
103
103
78
103
103
78
103
103
78
103
103
78
103
103
78
6
118
0
6
118
0
6
118
0
6
118
0
6
118
0
103
103
78
103
103
78
6
118
0
6
118
0
6
118
0
6
118
0
6
118
0
6
118
0
6
118
0
6
118
0
6
118
0
6
118
0
6
118
0
6
118
0
6
118
0
6
118
0
255
255
255
6
118
0
6
118
0
103
103
78
103
103
78
103
103
78
103
103
78
6
118
0
6
118
0
103
103
78
103
103
78
6
118
0
6
118
0
6
118
0
6
118
0
6
118
0
6
118
0
6
118
0
6
118
0
6
118
0
6
118
0
103
103
78
6
118
0
6
118
0
6
118
0
6
118
0
6
118
0
6
118
0
6
118
0
6
118
0
6
118
0
6
118
0
6
118
0
6
118
0
6
118
0
255
255
255
255
255
255
6
118
0
6
118
0
6
118
0
6
118
0
6
118
0
103
103
78
103
103
78
103
103
78
103
103
78
6
118
0
255
255
255
255
255
255
6
118
0
6
118
0
6
118
0
6
118
0
6
118
0
6
118
0
6
118
0
6
118
0
103
103
78
255
255
0
6
118
0
6
118
0
6
118
0
6
118
0
6
118
0
6
118
0
6
118
0
6
118
0
6
118
0
6
118
0
6
118
0
255
255
255
255
255
255
6
118
0
6
118
0
6
118
0
6
118
0
6
118
0
6
118
0
6
118
0
6
118
0
6
118
0
103
103
78
6
118
0
6
118
0
255
255
255
255
255
255
6
118
0
6
118
0
6
118
0
6
118
0
6
118
0
6
118
0
6
118
0
103
103
78
103
103
78
6
118
0
6
118
0
6
118
0
6
118
0
6
118
0
6
118
0
6
118
0
255
0
0
6
118
0
6
118
0
255
255
255
255
255
255
6
118
0
6
118
0
6
118
0
6
118
0
6
118
0
6
118
0
6
118
0
0
72
255
6
118
0
6
118
0
103
103
78
6
118
0
6
118
0
6
118
0
255
255
255
255
255
255
6
118
0
6
118
0
6
118
0
6
118
0
6
118
0
6
118
0
103
103
78
6
118
0
6
118
0
6
118
0
6
118
0
6
118
0
6
118
0
6
118
0
6
118
0
103
103
78
6
118
0
6
118
0
255
255
255
6
118
0
6
118
0
6
118
0
6
118
0
6
118
0
6
118
0
6
118
0
6
118
0
103
103
78
103
103
78
103
103
78
103
103
78
6
118
0
6
118
0
6
118
0
6
118
0
255
255
255
255
255
255
6
118
0
6
118
0
6
118
0
6
118
0
6
118
0
103
103
78
6
118
0
6
118
0
6
118
0
6
118
0
6
118
0
6
118
0
6
118
0
6
118
0
103
103
78
103
103
78
103
103
78
6
118
0
6
118
0
6
118
0
6
118
0
6
118
0
6
118
0
6
118
0
6
118
0
6
118
0
6
118
0
103
103
78
6
118
0
6
118
0
6
118
0
6
118
0
6
118
0
6
118
0
6
118
0
255
255
255
255
255
255
6
118
0
6
118
0
6
118
0
6
118
0
103
103
78
103
103
78
6
118
0
255
0
0
6
118
0
6
118
0
6
118
0
6
118
0
103
103
78
103
103
78
6
118
0
6
118
0
6
118
0
6
118
0
6
118
0
6
118
0
6
118
0
6
118
0
6
118
0
103
103
78
103
103
78
103
103
78
103
103
78
103
103
78
103
103
78
6
118
0
6
118
0
6
118
0
6
118
0
6
118
0
6
118
0
255
255
255
255
255
255
6
118
0
255
255
255
255
255
255
6
118
0
103
103
78
103
103
78
103
103
78
6
118
0
6
118
0
6
118
0
0
72
255
103
103
78
6
118
0
70
70
70
70
70
70
70
70
70
6
118
0
6
118
0
6
118
0
6
118
0
6
118
0
6
118
0
103
103
78
6
118
0
6
118
0
6
118
0
6
118
0
103
103
78
103
103
78
6
118
0
6
118
0
6
118
0
6
118
0
6
118
0
6
118
0
255
255
255
255
255
255
255
255
255
6
118
0
6
118
0
6
118
0
6
118
0
6
118
0
6
118
0
6
118
0
6
118
0
103
103
78
103
103
78
6
118
0
70
70
70
65
65
65
70
70
70
6
118
0
6
118
0
6
118
0
255
255
0
6
118
0
6
118
0
103
103
78
6
118
0
6
118
0
6
118
0
6
118
0
6
118
0
103
103
78
103
103
78
6
118
0
6
118
0
6
118
0
6
118
0
6
118
0
6
118
0
255
255
255
6
118
0
70
70
70
70
70
70
70
70
70
6
118
0
6
118
0
6
118
0
6
118
0
6
118
0
6
118
0
103
103
78
6
118
0
6
118
0
103
103
78
103
103
78
103
103
78
103
103
78
6
118
0
103
103
78
6
118
0
6
118
0
103
103
78
6
118
0
6
118
0
6
118
0
6
118
0
6
118
0
6
118
0
103
103
78
103
103
78
103
103
78
103
103
78
103
103
78
103
103
78
6
118
0
6
118
0
6
118
0
70
70
70
65
65
65
70
70
70
6
118
0
6
118
0
6
118
0
6
118
0
6
118
0
6
118
0
103
103
78
6
118
0
6
118
0
103
103
78
6
118
0
6
118
0
103
103
78
6
118
0
103
103
78
6
118
0
6
118
0
103
103
78
6
118
0
6
118
0
6
118
0
255
0
0
6
118
0
6
118
0
6
118
0
6
118
0
6
118
0
6
118
0
6
118
0
103
103
78
103
103
78
103
103
78
103
103
78
103
103
78
103
103
78
6
118
0
6
118
0
6
118
0
6
118
0
6
118
0
6
118
0
6
118
0
103
103
78
103
103
78
103
103
78
103
103
78
6
118
0
6
118
0
103
103
78
103
103
78
103
103
78
103
103
78
103
103
78
103
103
78
103
103
78
103
103
78
103
103
78
103
103
78
6
118
0
6
118
0
6
118
0
6
118
0
6
118
0
6
118
0
6
118
0
6
118
0
6
118
0
6
118
0
6
118
0
6
118
0
103
103
78
103
103
78
103
103
78
6
118
0
0
72
255
6
118
0
6
118
0
6
118
0
6
118
0
6
118
0
6
118
0
6
118
0
6
118
0
6
118
0
6
118
0
103
103
78
6
118
0
6
118
0
6
118
0
6
118
0
6
118
0
6
118
0
6
118
0
6
118
0
6
118
0
6
118
0
6
118
0
6
118
0
6
118
0
6
118
0
6
118
0
6
118
0
6
118
0
6
118
0
6
118
0
6
118
0
6
118
0
6
118
0
103
103
78
103
103
78
103
103
78
6
118
0
255
255
255
6
118
0
6
118
0
6
118
0
6
118
0
6
118
0
6
118
0
6
118
0
6
118
0
103
103
78
6
118
0
6
118
0
6
118
0
6
118
0
6
118
0
6
118
0
6
118
0
6
118
0
6
118
0
6
118
0
6
118
0
6
118
0
6
118
0
6
118
0
6
118
0
6
118
0
6
118
0
6
118
0
6
118
0
6
118
0
6
118
0
6
118
0
6
118
0
6
118
0
6
118
0
6
118
0
255
255
255
255
255
255
6
118
0
6
118
0
6
118
0
6
118
0
6
118
0
6
118
0
6
118
0
103
103
78
6
118
0
6
118
0
6
118
0
6
118
0
6
118
0
6
118
0
6
118
0
6
118
0
6
118
0
6
118
0
255
255
255
255
255
255
6
118
0
6
118
0
6
118
0
6
118
0
6
118
0
6
118
0
6
118
0
6
118
0
6
118
0
6
118
0
6
118
0
6
118
0
6
118
0
6
118
0
