P3
# CREATOR: GIMP PNM Filter Version 1.1
36 36
255
255
255
255
255
255
255
255
255
255
255
255
255
255
255
255
255
255
255
255
255
255
255
255
255
255
255
255
255
255
255
255
255
255
6
118
0
6
118
0
255
0
0
6
118
0
70
70
70
70
70
70
70
70
70
6
118
0
6
118
0
6
118
0
6
118
0
6
118
0
255
255
255
255
255
255
255
255
255
255
255
255
255
255
255
164
164
164
164
164
164
164
164
164
164
164
164
164
164
164
164
164
164
164
164
164
164
164
164
255
255
255
255
255
255
255
255
255
255
255
255
255
255
255
255
255
255
255
255
255
255
255
255
255
255
255
255
255
255
255
255
255
6
118
0
6
118
0
103
103
78
103
103
78
70
70
70
66
66
66
70
70
70
6
118
0
6
118
0
6
118
0
0
51
255
255
255
255
255
255
255
255
255
255
255
255
255
255
255
255
164
164
164
164
164
164
164
164
164
164
164
164
164
164
164
164
164
164
164
164
164
164
164
164
164
164
164
255
255
255
255
255
255
6
118
0
6
118
0
6
118
0
6
118
0
6
118
0
6
118
0
255
255
255
255
255
255
255
255
255
6
118
0
6
118
0
6
118
0
103
103
78
103
103
78
103
103
78
103
103
78
103
103
78
103
103
78
103
103
78
103
103
78
255
255
255
255
255
255
255
255
255
255
255
255
164
164
164
164
164
164
164
164
164
164
164
164
164
164
164
164
164
164
164
164
164
255
255
255
255
255
255
255
255
255
255
255
255
255
255
255
6
118
0
6
118
0
6
118
0
6
118
0
6
118
0
6
118
0
255
255
255
255
255
255
255
255
255
6
118
0
6
118
0
6
118
0
6
118
0
6
118
0
103
103
78
6
118
0
6
118
0
6
118
0
6
118
0
103
103
78
103
103
78
103
103
78
103
103
78
103
103
78
103
103
78
103
103
78
103
103
78
164
164
164
164
164
164
164
164
164
164
164
164
255
255
255
255
255
255
255
255
255
255
255
255
255
255
255
6
118
0
6
118
0
6
118
0
6
118
0
6
118
0
6
118
0
255
255
255
255
255
255
255
255
255
6
118
0
6
118
0
6
118
0
6
118
0
6
118
0
103
103
78
6
118
0
6
118
0
6
118
0
255
255
255
255
255
255
255
255
255
255
255
255
164
164
164
164
164
164
164
164
164
164
164
164
103
103
78
164
164
164
164
164
164
164
164
164
164
164
164
255
255
255
255
255
255
255
255
255
255
255
255
255
255
255
255
255
0
6
118
0
6
118
0
6
118
0
6
118
0
255
255
0
255
255
255
255
255
255
255
255
255
6
118
0
6
118
0
6
118
0
6
118
0
6
118
0
103
103
78
6
118
0
6
118
0
255
255
255
255
255
255
255
255
255
255
255
255
164
164
164
164
164
164
164
164
164
164
164
164
164
164
164
103
103
78
164
164
164
164
164
164
164
164
164
164
164
164
255
255
255
255
255
255
255
255
255
255
255
255
255
255
255
6
118
0
6
118
0
6
118
0
6
118
0
6
118
0
6
118
0
255
255
255
255
255
255
255
255
255
6
118
0
6
118
0
6
118
0
6
118
0
6
118
0
103
103
78
6
118
0
255
255
255
255
255
255
255
255
255
255
255
255
164
164
164
164
164
164
164
164
164
164
164
164
164
164
164
164
164
164
103
103
78
0
51
255
164
164
164
164
164
164
164
164
164
255
255
255
255
255
255
255
255
255
255
255
255
255
255
255
6
118
0
6
118
0
6
118
0
6
118
0
6
118
0
6
118
0
255
255
255
255
255
255
255
255
255
6
118
0
6
118
0
6
118
0
6
118
0
6
118
0
103
103
78
6
118
0
255
255
255
255
255
255
255
255
255
255
255
255
164
164
164
164
164
164
164
164
164
164
164
164
164
164
164
164
164
164
103
103
78
103
103
78
164
164
164
164
164
164
164
164
164
164
164
164
164
164
164
164
164
164
255
255
255
255
255
255
6
118
0
6
118
0
6
118
0
6
118
0
6
118
0
6
118
0
6
118
0
6
118
0
6
118
0
6
118
0
6
118
0
103
103
78
103
103
78
103
103
78
103
103
78
103
103
78
103
103
78
103
103
78
103
103
78
164
164
164
164
164
164
164
164
164
164
164
164
164
164
164
164
164
164
164
164
164
103
103
78
164
164
164
70
70
70
70
70
70
70
70
70
164
164
164
255
0
0
164
164
164
255
255
255
255
255
255
255
255
255
255
255
255
255
255
255
255
255
255
255
255
255
255
255
255
6
118
0
6
118
0
6
118
0
6
118
0
6
118
0
103
103
78
6
118
0
255
255
255
255
255
255
255
255
255
255
255
255
255
255
255
164
164
164
164
164
164
164
164
164
164
164
164
164
164
164
164
164
164
164
164
164
164
164
164
103
103
78
164
164
164
70
70
70
66
66
66
70
70
70
164
164
164
103
103
78
164
164
164
255
255
255
255
255
255
255
255
255
255
255
255
255
255
255
255
255
255
255
255
255
255
255
255
6
118
0
6
118
0
103
103
78
103
103
78
103
103
78
103
103
78
255
255
255
255
255
255
255
255
255
255
255
255
255
255
255
164
164
164
164
164
164
164
164
164
164
164
164
164
164
164
103
103
78
103
103
78
103
103
78
103
103
78
103
103
78
103
103
78
103
103
78
103
103
78
103
103
78
103
103
78
103
103
78
164
164
164
6
118
0
255
255
255
255
255
255
255
255
255
255
255
255
255
255
255
255
255
255
6
118
0
6
118
0
103
103
78
103
103
78
6
118
0
6
118
0
6
118
0
255
255
255
255
255
255
255
255
255
164
164
164
164
164
164
164
164
164
164
164
164
164
164
164
164
164
164
164
164
164
164
164
164
164
164
164
164
164
164
164
164
164
164
164
164
164
164
164
164
164
164
103
103
78
164
164
164
164
164
164
164
164
164
164
164
164
6
118
0
70
70
70
70
70
70
70
70
70
255
255
255
6
118
0
6
118
0
6
118
0
103
103
78
103
103
78
6
118
0
6
118
0
255
255
0
255
255
255
255
255
255
255
255
255
255
255
255
164
164
164
164
164
164
164
164
164
164
164
164
164
164
164
164
164
164
164
164
164
164
164
164
164
164
164
164
164
164
164
164
164
164
164
164
164
164
164
164
164
164
103
103
78
164
164
164
164
164
164
164
164
164
164
164
164
6
118
0
70
70
70
66
66
66
70
70
70
6
118
0
6
118
0
255
0
0
6
118
0
103
103
78
6
118
0
6
118
0
6
118
0
6
118
0
255
255
255
255
255
255
255
255
255
255
255
255
255
255
255
164
164
164
164
164
164
164
164
164
164
164
164
164
164
164
164
164
164
164
164
164
164
164
164
164
164
164
164
164
164
164
164
164
164
164
164
164
164
164
103
103
78
164
164
164
164
164
164
164
164
164
164
164
164
6
118
0
0
51
255
103
103
78
103
103
78
103
103
78
103
103
78
103
103
78
103
103
78
103
103
78
6
118
0
6
118
0
255
255
255
255
255
255
255
255
255
255
255
255
255
255
255
255
255
255
255
255
255
164
164
164
164
164
164
164
164
164
164
164
164
164
164
164
164
164
164
164
164
164
164
164
164
164
164
164
164
164
164
164
164
164
164
164
164
164
164
164
103
103
78
164
164
164
164
164
164
164
164
164
164
164
164
6
118
0
103
103
78
103
103
78
6
118
0
6
118
0
6
118
0
6
118
0
6
118
0
103
103
78
6
118
0
255
255
255
255
255
255
255
255
255
255
255
255
255
255
255
164
164
164
255
255
255
255
255
255
255
255
255
255
255
255
164
164
164
164
164
164
164
164
164
164
164
164
164
164
164
164
164
164
164
164
164
164
164
164
164
164
164
164
164
164
164
164
164
103
103
78
164
164
164
164
164
164
164
164
164
164
164
164
6
118
0
6
118
0
103
103
78
6
118
0
6
118
0
6
118
0
6
118
0
103
103
78
103
103
78
255
255
255
255
255
255
255
255
255
255
255
255
255
255
255
255
255
255
164
164
164
255
255
0
255
255
255
255
255
255
255
255
255
164
164
164
164
164
164
164
164
164
164
164
164
164
164
164
164
164
164
164
164
164
164
164
164
164
164
164
164
164
164
164
164
164
103
103
78
164
164
164
164
164
164
164
164
164
164
164
164
6
118
0
6
118
0
103
103
78
6
118
0
6
118
0
6
118
0
6
118
0
103
103
78
255
255
255
255
255
255
255
255
255
255
255
255
255
255
255
255
255
255
164
164
164
164
164
164
164
164
164
255
255
255
255
255
255
255
255
255
164
164
164
164
164
164
164
164
164
164
164
164
164
164
164
164
164
164
164
164
164
164
164
164
164
164
164
103
103
78
103
103
78
103
103
78
164
164
164
164
164
164
164
164
164
255
255
0
6
118
0
103
103
78
103
103
78
6
118
0
6
118
0
6
118
0
6
118
0
103
103
78
255
255
255
255
255
255
255
255
255
255
255
255
164
164
164
164
164
164
164
164
164
164
164
164
164
164
164
164
164
164
164
164
164
164
164
164
164
164
164
164
164
164
164
164
164
164
164
164
164
164
164
164
164
164
164
164
164
164
164
164
164
164
164
103
103
78
164
164
164
164
164
164
164
164
164
164
164
164
164
164
164
164
164
164
6
118
0
103
103
78
6
118
0
6
118
0
6
118
0
6
118
0
6
118
0
103
103
78
255
255
255
255
255
255
255
255
255
255
255
255
255
255
255
255
255
0
164
164
164
164
164
164
164
164
164
164
164
164
164
164
164
164
164
164
164
164
164
164
164
164
164
164
164
164
164
164
164
164
164
164
164
164
164
164
164
164
164
164
164
164
164
103
103
78
164
164
164
164
164
164
164
164
164
164
164
164
164
164
164
164
164
164
255
0
0
103
103
78
6
118
0
6
118
0
6
118
0
6
118
0
6
118
0
103
103
78
6
118
0
255
255
255
255
255
255
255
255
255
255
255
255
255
255
255
255
255
255
164
164
164
255
255
255
255
255
255
164
164
164
164
164
164
164
164
164
164
164
164
164
164
164
164
164
164
164
164
164
164
164
164
103
103
78
103
103
78
103
103
78
103
103
78
164
164
164
164
164
164
164
164
164
164
164
164
164
164
164
164
164
164
103
103
78
103
103
78
103
103
78
103
103
78
6
118
0
6
118
0
6
118
0
103
103
78
6
118
0
6
118
0
255
255
255
255
255
255
255
255
255
255
255
255
255
255
255
255
255
255
255
255
255
255
255
255
164
164
164
164
164
164
164
164
164
164
164
164
164
164
164
164
164
164
164
164
164
164
164
164
103
103
78
164
164
164
164
164
164
70
70
70
70
70
70
70
70
70
164
164
164
164
164
164
164
164
164
164
164
164
70
70
70
70
70
70
70
70
70
103
103
78
6
118
0
6
118
0
6
118
0
103
103
78
6
118
0
6
118
0
6
118
0
255
255
255
255
255
255
255
255
255
255
255
255
255
255
255
255
255
255
255
255
255
164
164
164
164
164
164
164
164
164
164
164
164
164
164
164
164
164
164
164
164
164
164
164
164
103
103
78
164
164
164
164
164
164
70
70
70
66
66
66
70
70
70
164
164
164
0
51
255
164
164
164
164
164
164
70
70
70
66
66
66
70
70
70
103
103
78
6
118
0
6
118
0
6
118
0
103
103
78
103
103
78
103
103
78
6
118
0
6
118
0
255
255
0
255
255
255
255
255
255
255
255
255
255
255
255
255
255
255
103
103
78
103
103
78
103
103
78
103
103
78
103
103
78
103
103
78
103
103
78
103
103
78
103
103
78
103
103
78
103
103
78
103
103
78
103
103
78
103
103
78
103
103
78
103
103
78
164
164
164
164
164
164
6
118
0
103
103
78
103
103
78
103
103
78
6
118
0
6
118
0
6
118
0
6
118
0
6
118
0
103
103
78
6
118
0
6
118
0
6
118
0
6
118
0
6
118
0
6
118
0
103
103
78
103
103
78
103
103
78
164
164
164
164
164
164
164
164
164
164
164
164
164
164
164
164
164
164
164
164
164
164
164
164
164
164
164
103
103
78
164
164
164
164
164
164
164
164
164
103
103
78
164
164
164
164
164
164
164
164
164
255
255
255
255
255
255
103
103
78
103
103
78
103
103
78
6
118
0
6
118
0
6
118
0
6
118
0
103
103
78
6
118
0
6
118
0
6
118
0
6
118
0
6
118
0
6
118
0
103
103
78
255
255
255
255
255
255
255
255
255
164
164
164
164
164
164
164
164
164
164
164
164
164
164
164
164
164
164
164
164
164
164
164
164
103
103
78
164
164
164
164
164
164
164
164
164
103
103
78
164
164
164
164
164
164
164
164
164
255
255
255
255
255
255
255
255
255
6
118
0
103
103
78
6
118
0
6
118
0
6
118
0
6
118
0
103
103
78
6
118
0
6
118
0
6
118
0
6
118
0
6
118
0
6
118
0
103
103
78
255
255
255
255
255
255
255
255
255
255
255
255
255
255
255
164
164
164
164
164
164
164
164
164
164
164
164
164
164
164
164
164
164
103
103
78
164
164
164
164
164
164
164
164
164
103
103
78
255
0
0
164
164
164
164
164
164
255
255
255
255
255
255
255
255
255
255
255
255
103
103
78
0
51
255
6
118
0
6
118
0
6
118
0
103
103
78
6
118
0
6
118
0
6
118
0
6
118
0
6
118
0
103
103
78
103
103
78
255
255
255
255
255
255
255
255
255
255
255
255
255
255
255
255
255
255
255
255
255
164
164
164
164
164
164
164
164
164
103
103
78
103
103
78
164
164
164
164
164
164
164
164
164
103
103
78
103
103
78
164
164
164
164
164
164
255
255
255
255
255
255
255
255
255
255
255
255
103
103
78
103
103
78
103
103
78
103
103
78
103
103
78
103
103
78
103
103
78
103
103
78
103
103
78
103
103
78
6
118
0
103
103
78
6
118
0
6
118
0
6
118
0
255
255
255
255
255
255
255
255
255
255
255
255
255
255
255
255
255
255
164
164
164
103
103
78
103
103
78
164
164
164
164
164
164
164
164
164
164
164
164
164
164
164
164
164
164
164
164
164
164
164
164
255
255
255
255
255
255
255
255
255
255
255
255
6
118
0
6
118
0
6
118
0
6
118
0
6
118
0
6
118
0
6
118
0
6
118
0
6
118
0
103
103
78
6
118
0
103
103
78
6
118
0
6
118
0
6
118
0
6
118
0
6
118
0
255
255
255
255
255
255
255
255
255
255
255
255
255
255
255
103
103
78
164
164
164
164
164
164
164
164
164
164
164
164
164
164
164
164
164
164
164
164
164
164
164
164
164
164
164
6
118
0
255
255
0
255
255
255
6
118
0
6
118
0
6
118
0
6
118
0
6
118
0
6
118
0
6
118
0
6
118
0
6
118
0
6
118
0
103
103
78
6
118
0
103
103
78
6
118
0
6
118
0
6
118
0
6
118
0
6
118
0
6
118
0
255
255
255
255
255
255
255
255
255
103
103
78
103
103
78
164
164
164
164
164
164
164
164
164
164
164
164
164
164
164
164
164
164
255
255
255
255
255
255
255
255
255
6
118
0
6
118
0
6
118
0
6
118
0
6
118
0
6
118
0
6
118
0
6
118
0
6
118
0
6
118
0
6
118
0
6
118
0
6
118
0
103
103
78
103
103
78
103
103
78
103
103
78
103
103
78
103
103
78
6
118
0
6
118
0
6
118
0
255
255
255
255
255
255
255
255
255
103
103
78
6
118
0
255
255
255
255
255
255
164
164
164
164
164
164
164
164
164
164
164
164
255
255
255
255
255
255
255
255
255
6
118
0
6
118
0
6
118
0
6
118
0
255
255
255
255
255
255
255
255
255
6
118
0
6
118
0
0
51
255
103
103
78
103
103
78
103
103
78
103
103
78
6
118
0
6
118
0
6
118
0
6
118
0
103
103
78
6
118
0
6
118
0
255
0
0
6
118
0
255
255
255
255
255
255
103
103
78
255
255
255
255
255
255
255
255
255
164
164
164
164
164
164
164
164
164
164
164
164
255
255
255
255
255
255
255
255
255
6
118
0
6
118
0
6
118
0
6
118
0
255
255
255
255
255
255
255
255
255
6
118
0
6
118
0
103
103
78
103
103
78
6
118
0
6
118
0
103
103
78
70
70
70
70
70
70
70
70
70
6
118
0
103
103
78
103
103
78
103
103
78
103
103
78
103
103
78
103
103
78
103
103
78
103
103
78
255
255
255
255
255
255
255
255
255
255
255
255
255
255
255
255
255
255
255
255
255
255
255
255
255
255
255
255
255
255
6
118
0
6
118
0
6
118
0
255
255
0
255
255
255
255
255
255
255
255
255
6
118
0
6
118
0
6
118
0
6
118
0
6
118
0
6
118
0
103
103
78
70
70
70
66
66
66
70
70
70
6
118
0
6
118
0
6
118
0
6
118
0
6
118
0
6
118
0
6
118
0
6
118
0
6
118
0
255
255
255
255
255
255
255
255
255
255
255
255
255
255
255
255
255
255
255
255
255
255
255
255
255
255
255
255
255
255
6
118
0
6
118
0
6
118
0
6
118
0
255
255
255
255
255
255
255
255
255
6
118
0
6
118
0
6
118
0
6
118
0
6
118
0
6
118
0
103
103
78
103
103
78
103
103
78
6
118
0
6
118
0
6
118
0
6
118
0
6
118
0
6
118
0
6
118
0
6
118
0
6
118
0
6
118
0
6
118
0
6
118
0
255
255
255
255
255
255
255
255
255
255
255
255
255
255
255
255
255
255
255
255
255
255
255
255
