P3
# CREATOR: GIMP PNM Filter Version 1.1
36 36
255
255
255
255
255
255
255
255
255
255
255
255
255
255
255
255
255
255
255
255
255
255
255
255
255
255
255
255
255
255
255
255
255
255
6
118
0
6
118
0
255
0
0
6
118
0
70
70
70
70
70
70
70
70
70
6
118
0
6
118
0
6
118
0
6
118
0
6
118
0
255
255
255
255
255
255
255
255
255
255
255
255
255
255
255
164
164
164
164
164
164
164
164
164
164
164
164
164
164
164
164
164
164
164
164
164
164
164
164
255
255
255
255
255
255
255
255
255
255
255
255
255
255
255
255
255
255
255
255
255
255
255
255
255
255
255
255
255
255
255
255
255
6
118
0
6
118
0
102
102
102
102
102
102
70
70
70
66
66
66
70
70
70
6
118
0
6
118
0
6
118
0
0
51
255
255
255
255
255
255
255
255
255
255
255
255
255
255
255
255
164
164
164
164
164
164
164
164
164
164
164
164
164
164
164
164
164
164
164
164
164
164
164
164
164
164
164
255
255
255
255
255
255
6
118
0
6
118
0
6
118
0
6
118
0
6
118
0
6
118
0
255
255
255
255
255
255
255
255
255
6
118
0
6
118
0
6
118
0
102
102
102
102
102
102
102
102
102
102
102
102
102
102
102
102
102
102
102
102
102
102
102
102
255
255
255
255
255
255
255
255
255
255
255
255
164
164
164
164
164
164
164
164
164
164
164
164
164
164
164
164
164
164
164
164
164
255
255
255
255
255
255
255
255
255
255
255
255
255
255
255
6
118
0
6
118
0
6
118
0
6
118
0
6
118
0
6
118
0
255
255
255
255
255
255
255
255
255
6
118
0
6
118
0
6
118
0
6
118
0
6
118
0
102
102
102
6
118
0
6
118
0
6
118
0
6
118
0
102
102
102
102
102
102
102
102
102
102
102
102
102
102
102
102
102
102
102
102
102
102
102
102
164
164
164
164
164
164
164
164
164
164
164
164
255
255
255
255
255
255
255
255
255
255
255
255
255
255
255
6
118
0
6
118
0
6
118
0
6
118
0
6
118
0
6
118
0
255
255
255
255
255
255
255
255
255
6
118
0
6
118
0
6
118
0
6
118
0
6
118
0
102
102
102
6
118
0
6
118
0
6
118
0
255
255
255
255
255
255
255
255
255
255
255
255
164
164
164
164
164
164
164
164
164
164
164
164
102
102
102
164
164
164
164
164
164
164
164
164
164
164
164
255
255
255
255
255
255
255
255
255
255
255
255
255
255
255
255
255
0
6
118
0
6
118
0
6
118
0
6
118
0
255
255
0
255
255
255
255
255
255
255
255
255
6
118
0
6
118
0
6
118
0
6
118
0
6
118
0
102
102
102
6
118
0
6
118
0
255
255
255
255
255
255
255
255
255
255
255
255
164
164
164
164
164
164
164
164
164
164
164
164
164
164
164
102
102
102
164
164
164
164
164
164
164
164
164
164
164
164
255
255
255
255
255
255
255
255
255
255
255
255
255
255
255
6
118
0
6
118
0
6
118
0
6
118
0
6
118
0
6
118
0
255
255
255
255
255
255
255
255
255
6
118
0
6
118
0
6
118
0
6
118
0
6
118
0
102
102
102
6
118
0
255
255
255
255
255
255
255
255
255
255
255
255
164
164
164
164
164
164
164
164
164
164
164
164
164
164
164
164
164
164
102
102
102
0
51
255
164
164
164
164
164
164
164
164
164
255
255
255
255
255
255
255
255
255
255
255
255
255
255
255
6
118
0
6
118
0
6
118
0
6
118
0
6
118
0
6
118
0
255
255
255
255
255
255
255
255
255
6
118
0
6
118
0
6
118
0
6
118
0
6
118
0
102
102
102
6
118
0
255
255
255
255
255
255
255
255
255
255
255
255
164
164
164
164
164
164
164
164
164
164
164
164
164
164
164
164
164
164
102
102
102
102
102
102
164
164
164
164
164
164
164
164
164
164
164
164
164
164
164
164
164
164
255
255
255
255
255
255
6
118
0
6
118
0
6
118
0
6
118
0
6
118
0
6
118
0
6
118
0
6
118
0
6
118
0
6
118
0
6
118
0
102
102
102
102
102
102
102
102
102
102
102
102
102
102
102
102
102
102
102
102
102
102
102
102
164
164
164
164
164
164
164
164
164
164
164
164
164
164
164
164
164
164
164
164
164
102
102
102
164
164
164
70
70
70
70
70
70
70
70
70
164
164
164
255
0
0
164
164
164
255
255
255
255
255
255
255
255
255
255
255
255
255
255
255
255
255
255
255
255
255
255
255
255
6
118
0
6
118
0
6
118
0
6
118
0
6
118
0
102
102
102
6
118
0
255
255
255
255
255
255
255
255
255
255
255
255
255
255
255
164
164
164
164
164
164
164
164
164
164
164
164
164
164
164
164
164
164
164
164
164
164
164
164
102
102
102
164
164
164
70
70
70
66
66
66
70
70
70
164
164
164
102
102
102
164
164
164
255
255
255
255
255
255
255
255
255
255
255
255
255
255
255
255
255
255
255
255
255
255
255
255
6
118
0
6
118
0
102
102
102
102
102
102
102
102
102
102
102
102
255
255
255
255
255
255
255
255
255
255
255
255
255
255
255
164
164
164
164
164
164
164
164
164
164
164
164
164
164
164
102
102
102
102
102
102
102
102
102
102
102
102
102
102
102
102
102
102
102
102
102
102
102
102
102
102
102
102
102
102
102
102
102
164
164
164
6
118
0
255
255
255
255
255
255
255
255
255
255
255
255
255
255
255
255
255
255
6
118
0
6
118
0
102
102
102
102
102
102
6
118
0
6
118
0
6
118
0
255
255
255
255
255
255
255
255
255
164
164
164
164
164
164
164
164
164
164
164
164
164
164
164
164
164
164
164
164
164
164
164
164
164
164
164
164
164
164
164
164
164
164
164
164
164
164
164
164
164
164
102
102
102
164
164
164
164
164
164
164
164
164
164
164
164
6
118
0
70
70
70
70
70
70
70
70
70
255
255
255
6
118
0
6
118
0
6
118
0
102
102
102
102
102
102
6
118
0
6
118
0
255
255
0
255
255
255
255
255
255
255
255
255
255
255
255
164
164
164
164
164
164
164
164
164
164
164
164
164
164
164
164
164
164
164
164
164
164
164
164
164
164
164
164
164
164
164
164
164
164
164
164
164
164
164
164
164
164
102
102
102
164
164
164
164
164
164
164
164
164
164
164
164
6
118
0
70
70
70
66
66
66
70
70
70
6
118
0
6
118
0
255
0
0
6
118
0
102
102
102
6
118
0
6
118
0
6
118
0
6
118
0
255
255
255
255
255
255
255
255
255
255
255
255
255
255
255
164
164
164
164
164
164
164
164
164
164
164
164
164
164
164
164
164
164
164
164
164
164
164
164
164
164
164
164
164
164
164
164
164
164
164
164
164
164
164
102
102
102
164
164
164
164
164
164
164
164
164
164
164
164
6
118
0
0
51
255
102
102
102
102
102
102
102
102
102
102
102
102
102
102
102
102
102
102
102
102
102
6
118
0
6
118
0
255
255
255
255
255
255
255
255
255
255
255
255
255
255
255
255
255
255
255
255
255
164
164
164
164
164
164
164
164
164
164
164
164
164
164
164
164
164
164
164
164
164
164
164
164
164
164
164
164
164
164
164
164
164
164
164
164
164
164
164
102
102
102
164
164
164
164
164
164
164
164
164
164
164
164
6
118
0
102
102
102
102
102
102
6
118
0
6
118
0
6
118
0
6
118
0
6
118
0
102
102
102
6
118
0
255
255
255
255
255
255
255
255
255
255
255
255
255
255
255
164
164
164
255
255
255
255
255
255
255
255
255
255
255
255
164
164
164
164
164
164
164
164
164
164
164
164
164
164
164
164
164
164
164
164
164
164
164
164
164
164
164
164
164
164
164
164
164
102
102
102
164
164
164
164
164
164
164
164
164
164
164
164
6
118
0
6
118
0
102
102
102
6
118
0
6
118
0
6
118
0
6
118
0
102
102
102
102
102
102
255
255
255
255
255
255
255
255
255
255
255
255
255
255
255
255
255
255
164
164
164
255
255
0
255
255
255
255
255
255
255
255
255
164
164
164
164
164
164
164
164
164
164
164
164
164
164
164
164
164
164
164
164
164
164
164
164
164
164
164
164
164
164
164
164
164
102
102
102
164
164
164
164
164
164
164
164
164
164
164
164
6
118
0
6
118
0
102
102
102
6
118
0
6
118
0
6
118
0
6
118
0
102
102
102
255
255
255
255
255
255
255
255
255
255
255
255
255
255
255
255
255
255
164
164
164
164
164
164
164
164
164
255
255
255
255
255
255
255
255
255
164
164
164
164
164
164
164
164
164
164
164
164
164
164
164
164
164
164
164
164
164
164
164
164
164
164
164
102
102
102
102
102
102
102
102
102
164
164
164
164
164
164
164
164
164
255
255
0
6
118
0
102
102
102
102
102
102
6
118
0
6
118
0
6
118
0
6
118
0
102
102
102
255
255
255
255
255
255
255
255
255
255
255
255
164
164
164
164
164
164
164
164
164
164
164
164
164
164
164
164
164
164
164
164
164
164
164
164
164
164
164
164
164
164
164
164
164
164
164
164
164
164
164
164
164
164
164
164
164
164
164
164
164
164
164
102
102
102
164
164
164
164
164
164
164
164
164
164
164
164
164
164
164
164
164
164
6
118
0
102
102
102
6
118
0
6
118
0
6
118
0
6
118
0
6
118
0
102
102
102
255
255
255
255
255
255
255
255
255
255
255
255
255
255
255
255
255
0
164
164
164
164
164
164
164
164
164
164
164
164
164
164
164
164
164
164
164
164
164
164
164
164
164
164
164
164
164
164
164
164
164
164
164
164
164
164
164
164
164
164
164
164
164
102
102
102
164
164
164
164
164
164
164
164
164
164
164
164
164
164
164
164
164
164
255
0
0
102
102
102
6
118
0
6
118
0
6
118
0
6
118
0
6
118
0
102
102
102
6
118
0
255
255
255
255
255
255
255
255
255
255
255
255
255
255
255
255
255
255
164
164
164
255
255
255
255
255
255
164
164
164
164
164
164
164
164
164
164
164
164
164
164
164
164
164
164
164
164
164
164
164
164
102
102
102
102
102
102
102
102
102
102
102
102
164
164
164
164
164
164
164
164
164
164
164
164
164
164
164
164
164
164
102
102
102
102
102
102
102
102
102
6
118
0
6
118
0
6
118
0
6
118
0
102
102
102
6
118
0
6
118
0
255
255
255
255
255
255
255
255
255
255
255
255
255
255
255
255
255
255
255
255
255
255
255
255
164
164
164
164
164
164
164
164
164
164
164
164
164
164
164
164
164
164
164
164
164
164
164
164
102
102
102
164
164
164
164
164
164
70
70
70
70
70
70
70
70
70
164
164
164
164
164
164
164
164
164
164
164
164
70
70
70
70
70
70
102
102
102
6
118
0
6
118
0
6
118
0
6
118
0
102
102
102
6
118
0
6
118
0
6
118
0
255
255
255
255
255
255
255
255
255
255
255
255
255
255
255
255
255
255
255
255
255
164
164
164
164
164
164
164
164
164
164
164
164
164
164
164
164
164
164
164
164
164
164
164
164
102
102
102
164
164
164
164
164
164
70
70
70
66
66
66
70
70
70
164
164
164
0
51
255
164
164
164
164
164
164
66
66
66
70
70
70
102
102
102
6
118
0
6
118
0
6
118
0
6
118
0
102
102
102
102
102
102
102
102
102
6
118
0
6
118
0
255
255
0
255
255
255
255
255
255
255
255
255
255
255
255
255
255
255
102
102
102
102
102
102
102
102
102
102
102
102
102
102
102
102
102
102
102
102
102
102
102
102
102
102
102
102
102
102
102
102
102
102
102
102
102
102
102
102
102
102
102
102
102
102
102
102
164
164
164
164
164
164
6
118
0
102
102
102
102
102
102
6
118
0
6
118
0
6
118
0
6
118
0
6
118
0
6
118
0
102
102
102
6
118
0
6
118
0
6
118
0
6
118
0
6
118
0
6
118
0
102
102
102
102
102
102
102
102
102
164
164
164
164
164
164
164
164
164
164
164
164
164
164
164
164
164
164
164
164
164
164
164
164
164
164
164
102
102
102
164
164
164
164
164
164
164
164
164
102
102
102
164
164
164
164
164
164
164
164
164
255
255
255
255
255
255
102
102
102
102
102
102
102
102
102
6
118
0
6
118
0
6
118
0
6
118
0
102
102
102
6
118
0
6
118
0
6
118
0
6
118
0
6
118
0
6
118
0
102
102
102
255
255
255
255
255
255
255
255
255
164
164
164
164
164
164
164
164
164
164
164
164
164
164
164
164
164
164
164
164
164
164
164
164
102
102
102
164
164
164
164
164
164
164
164
164
102
102
102
164
164
164
164
164
164
164
164
164
255
255
255
255
255
255
255
255
255
6
118
0
102
102
102
6
118
0
6
118
0
6
118
0
6
118
0
102
102
102
6
118
0
6
118
0
6
118
0
6
118
0
6
118
0
6
118
0
102
102
102
255
255
255
255
255
255
255
255
255
255
255
255
255
255
255
164
164
164
164
164
164
164
164
164
164
164
164
164
164
164
164
164
164
102
102
102
164
164
164
164
164
164
164
164
164
102
102
102
255
0
0
164
164
164
164
164
164
255
255
255
255
255
255
255
255
255
255
255
255
102
102
102
0
51
255
6
118
0
6
118
0
6
118
0
102
102
102
6
118
0
6
118
0
6
118
0
6
118
0
6
118
0
102
102
102
102
102
102
255
255
255
255
255
255
255
255
255
255
255
255
255
255
255
255
255
255
255
255
255
164
164
164
164
164
164
164
164
164
102
102
102
102
102
102
164
164
164
164
164
164
164
164
164
102
102
102
102
102
102
164
164
164
164
164
164
255
255
255
255
255
255
255
255
255
255
255
255
102
102
102
102
102
102
102
102
102
102
102
102
102
102
102
102
102
102
102
102
102
102
102
102
102
102
102
102
102
102
6
118
0
102
102
102
6
118
0
6
118
0
6
118
0
255
255
255
255
255
255
255
255
255
255
255
255
255
255
255
255
255
255
164
164
164
102
102
102
102
102
102
164
164
164
164
164
164
164
164
164
164
164
164
164
164
164
164
164
164
164
164
164
164
164
164
255
255
255
255
255
255
255
255
255
255
255
255
6
118
0
6
118
0
6
118
0
6
118
0
6
118
0
6
118
0
6
118
0
6
118
0
6
118
0
102
102
102
6
118
0
102
102
102
6
118
0
6
118
0
6
118
0
6
118
0
6
118
0
255
255
255
255
255
255
255
255
255
255
255
255
255
255
255
102
102
102
164
164
164
164
164
164
164
164
164
164
164
164
164
164
164
164
164
164
164
164
164
164
164
164
164
164
164
6
118
0
255
255
0
255
255
255
6
118
0
6
118
0
6
118
0
6
118
0
6
118
0
6
118
0
6
118
0
6
118
0
6
118
0
6
118
0
102
102
102
6
118
0
102
102
102
6
118
0
6
118
0
6
118
0
6
118
0
6
118
0
6
118
0
255
255
255
255
255
255
255
255
255
102
102
102
102
102
102
164
164
164
164
164
164
164
164
164
164
164
164
164
164
164
164
164
164
255
255
255
255
255
255
255
255
255
6
118
0
6
118
0
6
118
0
6
118
0
6
118
0
6
118
0
6
118
0
6
118
0
6
118
0
6
118
0
6
118
0
6
118
0
6
118
0
102
102
102
102
102
102
102
102
102
102
102
102
102
102
102
102
102
102
6
118
0
6
118
0
6
118
0
255
255
255
255
255
255
255
255
255
102
102
102
6
118
0
255
255
255
255
255
255
164
164
164
164
164
164
164
164
164
164
164
164
255
255
255
255
255
255
255
255
255
6
118
0
6
118
0
6
118
0
6
118
0
255
255
255
255
255
255
255
255
255
6
118
0
6
118
0
0
51
255
102
102
102
102
102
102
102
102
102
102
102
102
6
118
0
6
118
0
6
118
0
6
118
0
102
102
102
6
118
0
6
118
0
255
0
0
6
118
0
255
255
255
255
255
255
102
102
102
255
255
255
255
255
255
255
255
255
164
164
164
164
164
164
164
164
164
164
164
164
255
255
255
255
255
255
255
255
255
6
118
0
6
118
0
6
118
0
6
118
0
255
255
255
255
255
255
255
255
255
6
118
0
6
118
0
102
102
102
102
102
102
6
118
0
6
118
0
102
102
102
70
70
70
70
70
70
70
70
70
6
118
0
102
102
102
102
102
102
102
102
102
102
102
102
102
102
102
102
102
102
102
102
102
102
102
102
255
255
255
255
255
255
255
255
255
255
255
255
255
255
255
255
255
255
255
255
255
255
255
255
255
255
255
255
255
255
6
118
0
6
118
0
6
118
0
255
255
0
255
255
255
255
255
255
255
255
255
6
118
0
6
118
0
6
118
0
6
118
0
6
118
0
6
118
0
102
102
102
70
70
70
66
66
66
70
70
70
6
118
0
6
118
0
6
118
0
6
118
0
6
118
0
6
118
0
6
118
0
6
118
0
6
118
0
255
255
255
255
255
255
255
255
255
255
255
255
255
255
255
255
255
255
255
255
255
255
255
255
255
255
255
255
255
255
6
118
0
6
118
0
6
118
0
6
118
0
255
255
255
255
255
255
255
255
255
6
118
0
6
118
0
6
118
0
6
118
0
6
118
0
6
118
0
102
102
102
102
102
102
102
102
102
6
118
0
6
118
0
6
118
0
6
118
0
6
118
0
6
118
0
6
118
0
6
118
0
6
118
0
6
118
0
6
118
0
6
118
0
255
255
255
255
255
255
255
255
255
255
255
255
255
255
255
255
255
255
255
255
255
255
255
255
