P3
# CREATOR: GIMP PNM Filter Version 1.1
36 36
255
255
255
255
255
255
255
255
255
255
255
255
255
255
255
255
255
255
255
255
255
255
255
255
255
255
255
255
255
255
255
255
255
255
6
118
0
6
118
0
255
0
0
6
118
0
6
118
0
51
51
51
51
51
51
6
118
0
6
118
0
6
118
0
6
118
0
6
118
0
255
255
255
255
255
255
255
255
255
255
255
255
255
255
255
6
118
0
6
118
0
6
118
0
6
118
0
6
118
0
6
118
0
6
118
0
6
118
0
255
255
255
255
255
255
255
255
255
255
255
255
255
255
255
255
255
255
255
255
255
255
255
255
255
255
255
255
255
255
255
255
255
6
118
0
6
118
0
102
102
102
102
102
102
51
51
51
71
71
71
51
51
51
6
118
0
6
118
0
6
118
0
0
51
255
255
255
255
255
255
255
255
255
255
255
255
255
255
255
255
6
118
0
6
118
0
6
118
0
6
118
0
255
200
200
6
118
0
6
118
0
6
118
0
6
118
0
255
255
255
255
255
255
6
118
0
6
118
0
6
118
0
6
118
0
6
118
0
255
255
200
255
255
255
255
255
255
255
255
255
6
118
0
255
255
200
6
118
0
102
102
102
102
102
102
102
102
102
102
102
102
102
102
102
102
102
102
102
102
102
102
102
102
255
255
255
255
255
255
255
255
255
255
255
255
6
118
0
6
118
0
6
118
0
200
255
255
6
118
0
6
118
0
6
118
0
255
255
255
255
255
255
255
255
255
255
255
255
255
255
255
255
255
200
6
118
0
6
118
0
200
255
255
6
118
0
6
118
0
255
255
255
255
255
255
255
255
255
6
118
0
6
118
0
6
118
0
6
118
0
6
118
0
102
102
102
6
118
0
6
118
0
6
118
0
6
118
0
102
102
102
102
102
102
102
102
102
102
102
102
102
102
102
102
102
102
102
102
102
102
102
102
6
118
0
6
118
0
6
118
0
6
118
0
255
255
255
255
255
255
255
255
255
255
255
255
255
255
255
6
118
0
6
118
0
6
118
0
6
118
0
6
118
0
6
118
0
255
255
255
255
255
255
255
255
255
6
118
0
255
200
200
6
118
0
6
118
0
6
118
0
102
102
102
6
118
0
6
118
0
6
118
0
255
255
255
255
255
255
255
255
255
255
255
255
6
118
0
6
118
0
6
118
0
6
118
0
102
102
102
6
118
0
6
118
0
200
255
255
6
118
0
255
255
255
255
255
255
255
255
255
255
255
255
255
255
255
255
255
0
6
118
0
6
118
0
6
118
0
6
118
0
255
255
0
255
255
255
255
255
255
255
255
255
6
118
0
6
118
0
6
118
0
6
118
0
6
118
0
102
102
102
6
118
0
6
118
0
255
255
255
255
255
255
255
255
255
255
255
255
6
118
0
6
118
0
255
200
200
6
118
0
6
118
0
102
102
102
6
118
0
6
118
0
6
118
0
6
118
0
255
255
255
255
255
255
255
255
255
255
255
255
255
255
255
6
118
0
6
118
0
6
118
0
6
118
0
6
118
0
6
118
0
255
255
255
255
255
255
255
255
255
6
118
0
6
118
0
6
118
0
6
118
0
200
255
255
102
102
102
6
118
0
255
255
255
255
255
255
255
255
255
255
255
255
6
118
0
6
118
0
6
118
0
6
118
0
6
118
0
6
118
0
102
102
102
0
51
255
6
118
0
6
118
0
6
118
0
255
255
255
255
255
255
255
255
255
255
255
255
255
255
255
6
118
0
6
118
0
200
255
255
6
118
0
6
118
0
6
118
0
255
255
255
255
255
255
255
255
255
6
118
0
6
118
0
6
118
0
6
118
0
6
118
0
102
102
102
6
118
0
255
255
255
255
255
255
255
255
255
255
255
255
6
118
0
6
118
0
6
118
0
6
118
0
6
118
0
6
118
0
102
102
102
102
102
102
6
118
0
6
118
0
6
118
0
6
118
0
6
118
0
6
118
0
255
255
255
255
255
255
255
255
200
6
118
0
6
118
0
6
118
0
6
118
0
255
255
200
6
118
0
6
118
0
6
118
0
6
118
0
6
118
0
102
102
102
102
102
102
102
102
102
102
102
102
102
102
102
102
102
102
102
102
102
102
102
102
6
118
0
6
118
0
6
118
0
6
118
0
200
255
255
6
118
0
6
118
0
102
102
102
6
118
0
6
118
0
51
51
51
6
118
0
6
118
0
255
0
0
6
118
0
255
255
255
255
255
255
255
255
255
255
255
255
255
255
255
255
255
255
255
255
255
255
255
255
6
118
0
6
118
0
255
255
200
6
118
0
6
118
0
102
102
102
6
118
0
255
255
255
255
255
255
255
255
255
255
255
255
255
255
255
6
118
0
6
118
0
6
118
0
6
118
0
6
118
0
6
118
0
6
118
0
6
118
0
102
102
102
6
118
0
51
51
51
71
71
71
51
51
51
6
118
0
102
102
102
6
118
0
255
255
255
255
255
255
255
255
255
255
255
255
255
255
255
255
255
255
255
255
255
255
255
255
6
118
0
6
118
0
102
102
102
102
102
102
102
102
102
102
102
102
255
255
255
255
255
255
255
255
255
255
255
255
255
255
255
6
118
0
6
118
0
6
118
0
6
118
0
6
118
0
102
102
102
102
102
102
102
102
102
102
102
102
102
102
102
102
102
102
102
102
102
102
102
102
102
102
102
102
102
102
102
102
102
6
118
0
6
118
0
255
255
255
255
255
255
255
255
255
255
255
255
255
255
255
255
255
255
6
118
0
6
118
0
102
102
102
102
102
102
6
118
0
6
118
0
6
118
0
255
255
255
255
255
255
255
255
255
6
118
0
6
118
0
6
118
0
6
118
0
255
200
200
6
118
0
6
118
0
6
118
0
6
118
0
6
118
0
6
118
0
6
118
0
6
118
0
6
118
0
102
102
102
6
118
0
6
118
0
6
118
0
255
255
200
6
118
0
6
118
0
51
51
51
51
51
51
255
255
255
6
118
0
6
118
0
6
118
0
102
102
102
102
102
102
6
118
0
6
118
0
255
255
0
255
255
255
255
255
255
255
255
255
255
255
255
6
118
0
6
118
0
6
118
0
6
118
0
6
118
0
6
118
0
6
118
0
6
118
0
6
118
0
200
255
255
6
118
0
6
118
0
6
118
0
6
118
0
102
102
102
6
118
0
6
118
0
6
118
0
6
118
0
6
118
0
6
118
0
71
71
71
51
51
51
6
118
0
6
118
0
255
0
0
6
118
0
102
102
102
6
118
0
6
118
0
6
118
0
6
118
0
255
255
255
255
255
255
255
255
255
255
255
255
255
255
255
6
118
0
6
118
0
255
255
200
6
118
0
6
118
0
6
118
0
6
118
0
6
118
0
6
118
0
6
118
0
6
118
0
6
118
0
6
118
0
102
102
102
6
118
0
200
255
255
6
118
0
6
118
0
6
118
0
0
51
255
102
102
102
102
102
102
102
102
102
102
102
102
102
102
102
102
102
102
102
102
102
6
118
0
6
118
0
255
255
255
255
255
255
255
255
255
255
255
255
255
255
255
255
255
255
255
255
255
6
118
0
6
118
0
6
118
0
6
118
0
6
118
0
6
118
0
6
118
0
6
118
0
6
118
0
6
118
0
6
118
0
6
118
0
6
118
0
102
102
102
6
118
0
6
118
0
6
118
0
6
118
0
6
118
0
102
102
102
102
102
102
6
118
0
6
118
0
6
118
0
6
118
0
6
118
0
102
102
102
6
118
0
255
255
255
255
255
255
255
255
255
255
255
255
255
255
255
6
118
0
255
255
255
255
255
255
255
255
255
255
255
255
6
118
0
6
118
0
6
118
0
255
200
200
6
118
0
6
118
0
6
118
0
6
118
0
255
200
200
6
118
0
6
118
0
102
102
102
6
118
0
6
118
0
6
118
0
6
118
0
6
118
0
6
118
0
102
102
102
6
118
0
6
118
0
255
200
200
6
118
0
102
102
102
102
102
102
255
255
255
255
255
255
255
255
255
255
255
255
255
255
255
255
255
255
6
118
0
255
255
0
255
255
255
255
255
255
255
255
255
6
118
0
6
118
0
6
118
0
6
118
0
6
118
0
6
118
0
200
255
255
6
118
0
6
118
0
6
118
0
6
118
0
102
102
102
6
118
0
255
200
200
6
118
0
6
118
0
6
118
0
6
118
0
102
102
102
6
118
0
6
118
0
6
118
0
6
118
0
102
102
102
255
255
255
255
255
255
255
255
255
255
255
255
255
255
255
255
255
255
6
118
0
6
118
0
6
118
0
255
255
255
255
255
255
255
255
255
6
118
0
6
118
0
255
255
200
6
118
0
6
118
0
6
118
0
6
118
0
6
118
0
6
118
0
102
102
102
102
102
102
102
102
102
6
118
0
6
118
0
6
118
0
255
255
0
6
118
0
102
102
102
102
102
102
6
118
0
6
118
0
6
118
0
6
118
0
102
102
102
255
255
255
255
255
255
255
255
255
255
255
255
6
118
0
6
118
0
6
118
0
6
118
0
6
118
0
6
118
0
6
118
0
6
118
0
6
118
0
6
118
0
6
118
0
6
118
0
6
118
0
6
118
0
6
118
0
6
118
0
6
118
0
102
102
102
6
118
0
6
118
0
6
118
0
6
118
0
6
118
0
6
118
0
6
118
0
102
102
102
6
118
0
255
255
200
6
118
0
255
200
200
6
118
0
102
102
102
255
255
255
255
255
255
255
255
255
255
255
255
255
255
255
255
255
0
6
118
0
6
118
0
6
118
0
6
118
0
6
118
0
6
118
0
6
118
0
6
118
0
6
118
0
6
118
0
6
118
0
6
118
0
6
118
0
6
118
0
6
118
0
102
102
102
6
118
0
255
255
200
6
118
0
255
200
200
6
118
0
6
118
0
255
0
0
102
102
102
6
118
0
6
118
0
6
118
0
6
118
0
6
118
0
102
102
102
6
118
0
255
255
255
255
255
255
255
255
255
255
255
255
255
255
255
255
255
255
6
118
0
255
255
255
255
255
255
6
118
0
200
255
255
6
118
0
6
118
0
255
200
200
6
118
0
6
118
0
6
118
0
102
102
102
102
102
102
102
102
102
102
102
102
6
118
0
6
118
0
6
118
0
6
118
0
6
118
0
6
118
0
102
102
102
102
102
102
102
102
102
6
118
0
6
118
0
6
118
0
6
118
0
102
102
102
6
118
0
6
118
0
255
255
255
255
255
255
255
255
255
255
255
255
255
255
255
255
255
255
255
255
255
255
255
255
6
118
0
6
118
0
6
118
0
6
118
0
6
118
0
6
118
0
6
118
0
6
118
0
102
102
102
6
118
0
6
118
0
6
118
0
51
51
51
6
118
0
6
118
0
6
118
0
6
118
0
200
255
255
51
51
51
51
51
51
102
102
102
6
118
0
255
255
200
6
118
0
6
118
0
102
102
102
6
118
0
6
118
0
6
118
0
255
255
255
255
255
255
255
255
255
255
255
255
255
255
255
255
255
255
255
255
255
6
118
0
6
118
0
6
118
0
6
118
0
6
118
0
6
118
0
6
118
0
200
255
255
102
102
102
6
118
0
6
118
0
51
51
51
71
71
71
51
51
51
6
118
0
0
51
255
6
118
0
6
118
0
71
71
71
51
51
51
102
102
102
6
118
0
6
118
0
6
118
0
6
118
0
102
102
102
102
102
102
102
102
102
6
118
0
6
118
0
255
255
0
255
255
255
255
255
255
255
255
255
255
255
255
255
255
255
102
102
102
102
102
102
102
102
102
102
102
102
102
102
102
102
102
102
102
102
102
102
102
102
102
102
102
102
102
102
102
102
102
102
102
102
102
102
102
102
102
102
102
102
102
102
102
102
6
118
0
6
118
0
6
118
0
102
102
102
102
102
102
6
118
0
6
118
0
6
118
0
6
118
0
6
118
0
6
118
0
102
102
102
6
118
0
6
118
0
6
118
0
6
118
0
6
118
0
6
118
0
102
102
102
102
102
102
102
102
102
6
118
0
6
118
0
255
255
200
6
118
0
6
118
0
6
118
0
6
118
0
6
118
0
6
118
0
102
102
102
6
118
0
6
118
0
6
118
0
102
102
102
6
118
0
6
118
0
6
118
0
255
255
255
255
255
255
102
102
102
102
102
102
102
102
102
6
118
0
6
118
0
6
118
0
6
118
0
102
102
102
6
118
0
200
255
255
6
118
0
6
118
0
6
118
0
6
118
0
102
102
102
255
255
255
255
255
255
255
255
255
6
118
0
6
118
0
6
118
0
6
118
0
255
255
200
6
118
0
6
118
0
6
118
0
102
102
102
6
118
0
6
118
0
6
118
0
102
102
102
6
118
0
6
118
0
6
118
0
255
255
255
255
255
255
255
255
255
6
118
0
102
102
102
6
118
0
6
118
0
255
200
200
6
118
0
102
102
102
6
118
0
6
118
0
6
118
0
6
118
0
6
118
0
6
118
0
102
102
102
255
255
255
255
255
255
255
255
255
255
255
255
255
255
255
6
118
0
6
118
0
6
118
0
6
118
0
6
118
0
6
118
0
102
102
102
6
118
0
255
200
200
6
118
0
102
102
102
255
0
0
6
118
0
6
118
0
255
255
255
255
255
255
255
255
255
255
255
255
102
102
102
0
51
255
6
118
0
6
118
0
6
118
0
102
102
102
6
118
0
6
118
0
6
118
0
255
200
200
6
118
0
102
102
102
102
102
102
255
255
255
255
255
255
255
255
255
255
255
255
255
255
255
255
255
255
255
255
255
6
118
0
6
118
0
6
118
0
102
102
102
102
102
102
6
118
0
6
118
0
6
118
0
102
102
102
102
102
102
6
118
0
6
118
0
255
255
255
255
255
255
255
255
255
255
255
255
102
102
102
102
102
102
102
102
102
102
102
102
102
102
102
102
102
102
102
102
102
102
102
102
102
102
102
102
102
102
6
118
0
102
102
102
6
118
0
6
118
0
6
118
0
255
255
255
255
255
255
255
255
255
255
255
255
255
255
255
255
255
255
6
118
0
102
102
102
102
102
102
6
118
0
6
118
0
6
118
0
6
118
0
6
118
0
6
118
0
6
118
0
6
118
0
255
255
255
255
255
255
255
255
255
255
255
255
6
118
0
6
118
0
6
118
0
6
118
0
6
118
0
6
118
0
6
118
0
6
118
0
6
118
0
102
102
102
6
118
0
102
102
102
6
118
0
255
200
200
6
118
0
6
118
0
6
118
0
255
255
255
255
255
255
255
255
255
255
255
255
255
255
255
102
102
102
6
118
0
6
118
0
6
118
0
6
118
0
6
118
0
6
118
0
6
118
0
200
255
255
6
118
0
6
118
0
255
255
0
255
255
255
6
118
0
6
118
0
6
118
0
6
118
0
200
255
255
6
118
0
6
118
0
255
200
200
6
118
0
6
118
0
102
102
102
6
118
0
102
102
102
6
118
0
6
118
0
6
118
0
6
118
0
6
118
0
6
118
0
255
255
255
255
255
255
255
255
255
102
102
102
102
102
102
6
118
0
6
118
0
6
118
0
255
200
200
6
118
0
6
118
0
255
255
255
255
255
255
255
255
255
6
118
0
6
118
0
6
118
0
6
118
0
6
118
0
6
118
0
6
118
0
6
118
0
6
118
0
6
118
0
6
118
0
6
118
0
6
118
0
102
102
102
102
102
102
102
102
102
102
102
102
102
102
102
102
102
102
6
118
0
6
118
0
6
118
0
255
255
255
255
255
255
255
255
255
102
102
102
6
118
0
255
255
255
255
255
255
6
118
0
6
118
0
6
118
0
6
118
0
255
255
255
255
255
255
255
255
255
6
118
0
6
118
0
6
118
0
6
118
0
255
255
255
255
255
255
255
255
255
6
118
0
6
118
0
0
51
255
102
102
102
102
102
102
102
102
102
102
102
102
6
118
0
6
118
0
6
118
0
6
118
0
102
102
102
6
118
0
6
118
0
255
0
0
6
118
0
255
255
255
255
255
255
102
102
102
255
255
255
255
255
255
255
255
255
6
118
0
6
118
0
6
118
0
6
118
0
255
255
255
255
255
255
255
255
255
255
200
200
6
118
0
6
118
0
6
118
0
255
255
255
255
255
255
255
255
255
6
118
0
6
118
0
102
102
102
102
102
102
6
118
0
6
118
0
102
102
102
51
51
51
51
51
51
51
51
51
6
118
0
102
102
102
102
102
102
102
102
102
102
102
102
102
102
102
102
102
102
102
102
102
102
102
102
255
255
255
255
255
255
255
255
255
255
255
255
255
255
255
255
255
255
255
255
255
255
255
255
255
255
255
255
255
255
6
118
0
6
118
0
6
118
0
255
255
0
255
255
255
255
255
255
255
255
255
6
118
0
6
118
0
6
118
0
6
118
0
6
118
0
6
118
0
102
102
102
51
51
51
71
71
71
51
51
51
6
118
0
6
118
0
6
118
0
6
118
0
6
118
0
6
118
0
6
118
0
6
118
0
6
118
0
255
255
255
255
255
255
255
255
255
255
255
255
255
255
255
255
255
255
255
255
255
255
255
255
255
255
255
255
255
255
6
118
0
6
118
0
6
118
0
6
118
0
255
255
255
255
255
255
255
255
255
6
118
0
6
118
0
6
118
0
6
118
0
200
255
255
6
118
0
102
102
102
102
102
102
102
102
102
6
118
0
6
118
0
6
118
0
255
200
200
6
118
0
6
118
0
6
118
0
255
255
200
6
118
0
6
118
0
6
118
0
6
118
0
255
255
255
255
255
255
255
255
255
255
255
255
255
255
255
255
255
255
255
255
255
255
255
255
