P3
# CREATOR: GIMP PNM Filter Version 1.1
36 36
255
6
118
0
6
118
0
6
118
0
6
118
0
6
118
0
6
118
0
6
118
0
6
118
0
6
118
0
6
118
0
6
118
0
6
118
0
6
118
0
6
118
0
6
118
0
255
255
255
255
255
255
255
255
255
255
255
255
255
255
255
140
130
80
140
130
80
140
130
80
140
130
80
140
130
80
140
130
80
140
130
80
140
130
80
140
130
80
140
130
80
140
130
80
140
130
80
140
130
80
140
130
80
140
130
80
140
130
80
6
118
0
6
118
0
6
118
0
6
118
0
6
118
0
6
118
0
6
118
0
6
118
0
6
118
0
6
118
0
0
51
255
255
255
255
255
255
255
6
118
0
6
118
0
255
255
255
255
255
255
255
255
255
255
255
255
255
255
255
140
130
80
140
130
80
140
130
80
140
130
80
140
130
80
140
130
80
140
130
80
140
130
80
140
130
80
0
51
255
140
130
80
140
130
80
140
130
80
140
130
80
140
130
80
140
130
80
6
118
0
6
118
0
6
118
0
255
255
0
6
118
0
6
118
0
6
118
0
6
118
0
6
118
0
6
118
0
6
118
0
255
255
255
255
255
255
255
255
255
6
118
0
6
118
0
255
255
255
255
255
255
255
255
255
255
255
255
255
255
255
140
130
80
140
130
80
140
130
80
140
130
80
140
130
80
140
130
80
140
130
80
140
130
80
140
130
80
140
130
80
140
130
80
140
130
80
140
130
80
140
130
80
140
130
80
6
118
0
6
118
0
6
118
0
6
118
0
6
118
0
6
118
0
6
118
0
6
118
0
6
118
0
6
118
0
6
118
0
255
255
255
255
255
255
255
255
255
6
118
0
6
118
0
255
255
0
255
255
255
255
255
255
255
255
255
140
130
80
140
130
80
140
130
80
140
130
80
255
255
0
140
130
80
140
130
80
140
130
80
140
130
80
140
130
80
140
130
80
140
130
80
140
130
80
140
130
80
140
130
80
140
130
80
6
118
0
6
118
0
6
118
0
6
118
0
6
118
0
6
118
0
6
118
0
255
0
0
6
118
0
6
118
0
6
118
0
6
118
0
255
255
255
255
255
255
255
255
255
255
255
255
255
255
255
255
255
255
255
255
255
255
255
255
140
130
80
140
130
80
140
130
80
140
130
80
140
130
80
140
130
80
140
130
80
140
130
80
140
130
80
140
130
80
70
70
70
70
70
70
70
70
70
140
130
80
140
130
80
140
130
80
6
118
0
6
118
0
6
118
0
6
118
0
6
118
0
6
118
0
6
118
0
102
102
102
6
118
0
6
118
0
6
118
0
6
118
0
6
118
0
255
255
255
255
255
255
255
255
255
255
255
255
255
255
255
255
255
255
255
255
255
140
130
80
140
130
80
140
130
80
140
130
80
140
130
80
140
130
80
140
130
80
140
130
80
140
130
80
140
130
80
70
70
70
66
66
66
70
70
70
140
130
80
140
130
80
140
130
80
6
118
0
6
118
0
6
118
0
6
118
0
6
118
0
102
102
102
102
102
102
102
102
102
6
118
0
6
118
0
6
118
0
6
118
0
6
118
0
6
118
0
6
118
0
6
118
0
255
255
255
255
255
255
255
255
255
255
255
255
255
255
255
140
130
80
140
130
80
140
130
80
140
130
80
140
130
80
140
130
80
140
130
80
140
130
80
140
130
80
140
130
80
102
102
102
140
130
80
140
130
80
140
130
80
140
130
80
6
118
0
6
118
0
70
70
70
70
70
70
70
70
70
102
102
102
6
118
0
6
118
0
6
118
0
6
118
0
6
118
0
6
118
0
6
118
0
6
118
0
6
118
0
6
118
0
255
255
255
255
255
255
255
255
255
255
255
255
255
255
255
140
130
80
140
130
80
140
130
80
140
130
80
140
130
80
140
130
80
255
0
0
140
130
80
140
130
80
140
130
80
102
102
102
140
130
80
140
130
80
140
130
80
140
130
80
6
118
0
6
118
0
70
70
70
66
66
66
70
70
70
102
102
102
6
118
0
6
118
0
6
118
0
6
118
0
6
118
0
6
118
0
6
118
0
6
118
0
6
118
0
6
118
0
255
255
255
255
255
255
255
255
255
255
255
255
255
255
255
140
130
80
140
130
80
140
130
80
140
130
80
140
130
80
140
130
80
102
102
102
102
102
102
102
102
102
102
102
102
102
102
102
140
130
80
140
130
80
140
130
80
140
130
80
6
118
0
6
118
0
6
118
0
102
102
102
6
118
0
102
102
102
6
118
0
6
118
0
6
118
0
6
118
0
6
118
0
6
118
0
6
118
0
6
118
0
6
118
0
6
118
0
255
255
255
255
255
255
255
255
255
255
255
255
255
255
255
255
255
255
140
130
80
140
130
80
140
130
80
140
130
80
140
130
80
140
130
80
140
130
80
140
130
80
140
130
80
102
102
102
140
130
80
140
130
80
140
130
80
140
130
80
6
118
0
0
51
255
6
118
0
102
102
102
6
118
0
102
102
102
6
118
0
6
118
0
6
118
0
6
118
0
6
118
0
6
118
0
6
118
0
6
118
0
6
118
0
6
118
0
255
255
255
255
255
255
255
255
255
255
255
255
255
255
255
140
130
80
140
130
80
140
130
80
140
130
80
140
130
80
140
130
80
140
130
80
140
130
80
140
130
80
140
130
80
102
102
102
140
130
80
140
130
80
140
130
80
140
130
80
6
118
0
102
102
102
102
102
102
102
102
102
102
102
102
102
102
102
102
102
102
102
102
102
102
102
102
102
102
102
102
102
102
102
102
102
102
102
102
102
102
102
102
102
102
102
102
102
102
102
102
102
102
102
102
102
102
102
102
102
102
102
102
102
102
102
102
102
102
102
102
102
102
102
102
102
102
102
102
102
102
102
102
102
102
102
102
140
130
80
140
130
80
102
102
102
140
130
80
140
130
80
0
51
255
140
130
80
6
118
0
6
118
0
6
118
0
6
118
0
6
118
0
6
118
0
102
102
102
6
118
0
6
118
0
6
118
0
6
118
0
6
118
0
6
118
0
6
118
0
6
118
0
6
118
0
255
255
255
255
255
255
255
255
255
255
255
255
140
130
80
140
130
80
140
130
80
140
130
80
140
130
80
140
130
80
140
130
80
140
130
80
102
102
102
140
130
80
140
130
80
102
102
102
140
130
80
102
102
102
102
102
102
140
130
80
6
118
0
6
118
0
6
118
0
6
118
0
6
118
0
6
118
0
102
102
102
102
102
102
102
102
102
6
118
0
6
118
0
6
118
0
6
118
0
6
118
0
6
118
0
6
118
0
255
255
255
255
255
255
255
255
255
255
255
255
255
255
255
140
130
80
140
130
80
140
130
80
140
130
80
140
130
80
140
130
80
140
130
80
102
102
102
102
102
102
102
102
102
102
102
102
102
102
102
102
102
102
140
130
80
140
130
80
6
118
0
6
118
0
6
118
0
6
118
0
6
118
0
6
118
0
6
118
0
6
118
0
102
102
102
6
118
0
6
118
0
6
118
0
6
118
0
6
118
0
6
118
0
6
118
0
255
255
255
255
255
255
255
255
255
255
255
255
255
255
255
140
130
80
140
130
80
140
130
80
140
130
80
140
130
80
140
130
80
140
130
80
102
102
102
140
130
80
140
130
80
140
130
80
140
130
80
140
130
80
140
130
80
140
130
80
6
118
0
6
118
0
6
118
0
6
118
0
6
118
0
6
118
0
6
118
0
6
118
0
102
102
102
6
118
0
6
118
0
6
118
0
6
118
0
6
118
0
6
118
0
6
118
0
255
255
255
255
255
255
255
255
255
255
255
255
140
130
80
0
51
255
140
130
80
140
130
80
140
130
80
140
130
80
140
130
80
140
130
80
102
102
102
140
130
80
140
130
80
140
130
80
140
130
80
140
130
80
140
130
80
140
130
80
6
118
0
6
118
0
6
118
0
6
118
0
6
118
0
6
118
0
6
118
0
6
118
0
102
102
102
6
118
0
6
118
0
6
118
0
6
118
0
6
118
0
6
118
0
255
255
255
255
255
255
255
255
255
255
255
255
255
255
255
140
130
80
140
130
80
140
130
80
140
130
80
140
130
80
140
130
80
140
130
80
140
130
80
102
102
102
140
130
80
140
130
80
140
130
80
140
130
80
140
130
80
140
130
80
140
130
80
6
118
0
6
118
0
6
118
0
6
118
0
255
0
0
6
118
0
6
118
0
6
118
0
102
102
102
6
118
0
6
118
0
6
118
0
6
118
0
6
118
0
0
51
255
255
255
255
255
255
255
255
255
255
255
255
255
255
255
255
140
130
80
140
130
80
140
130
80
140
130
80
140
130
80
140
130
80
140
130
80
140
130
80
102
102
102
140
130
80
140
130
80
140
130
80
255
0
0
140
130
80
140
130
80
140
130
80
6
118
0
255
255
0
6
118
0
6
118
0
6
118
0
6
118
0
6
118
0
102
102
102
102
102
102
6
118
0
6
118
0
6
118
0
6
118
0
6
118
0
6
118
0
255
255
255
255
255
255
255
255
255
255
255
255
255
255
255
140
130
80
140
130
80
140
130
80
140
130
80
140
130
80
140
130
80
140
130
80
140
130
80
102
102
102
140
130
80
140
130
80
140
130
80
140
130
80
140
130
80
140
130
80
140
130
80
6
118
0
6
118
0
6
118
0
6
118
0
6
118
0
6
118
0
102
102
102
102
102
102
6
118
0
6
118
0
6
118
0
6
118
0
6
118
0
6
118
0
6
118
0
255
255
255
255
255
255
255
255
255
255
255
255
255
255
255
255
255
255
140
130
80
140
130
80
140
130
80
140
130
80
140
130
80
140
130
80
140
130
80
102
102
102
102
102
102
140
130
80
140
130
80
140
130
80
140
130
80
255
255
0
140
130
80
6
118
0
6
118
0
6
118
0
6
118
0
6
118
0
6
118
0
102
102
102
6
118
0
6
118
0
6
118
0
6
118
0
6
118
0
6
118
0
6
118
0
6
118
0
255
255
255
255
255
255
255
255
255
255
255
255
255
255
255
255
255
255
140
130
80
140
130
80
140
130
80
140
130
80
140
130
80
140
130
80
140
130
80
140
130
80
102
102
102
102
102
102
140
130
80
140
130
80
140
130
80
140
130
80
140
130
80
6
118
0
6
118
0
6
118
0
6
118
0
6
118
0
6
118
0
102
102
102
6
118
0
6
118
0
6
118
0
6
118
0
6
118
0
6
118
0
6
118
0
6
118
0
255
255
255
255
255
255
255
255
255
255
255
255
255
255
255
140
130
80
140
130
80
140
130
80
140
130
80
140
130
80
140
130
80
140
130
80
140
130
80
140
130
80
140
130
80
102
102
102
102
102
102
140
130
80
140
130
80
140
130
80
140
130
80
6
118
0
6
118
0
6
118
0
6
118
0
6
118
0
6
118
0
102
102
102
6
118
0
6
118
0
6
118
0
6
118
0
6
118
0
6
118
0
6
118
0
6
118
0
255
255
255
255
255
255
255
255
255
255
255
255
255
255
255
140
130
80
140
130
80
140
130
80
140
130
80
140
130
80
140
130
80
140
130
80
140
130
80
140
130
80
140
130
80
140
130
80
102
102
102
140
130
80
140
130
80
140
130
80
140
130
80
6
118
0
6
118
0
6
118
0
6
118
0
6
118
0
6
118
0
102
102
102
6
118
0
6
118
0
6
118
0
6
118
0
6
118
0
6
118
0
6
118
0
6
118
0
255
255
255
255
255
255
255
255
255
255
255
255
255
255
255
255
255
255
140
130
80
140
130
80
140
130
80
140
130
80
140
130
80
140
130
80
140
130
80
140
130
80
140
130
80
140
130
80
102
102
102
140
130
80
255
0
0
140
130
80
140
130
80
6
118
0
6
118
0
6
118
0
6
118
0
6
118
0
6
118
0
102
102
102
6
118
0
6
118
0
6
118
0
6
118
0
6
118
0
6
118
0
6
118
0
6
118
0
6
118
0
255
255
255
255
255
255
140
130
80
140
130
80
255
255
255
140
130
80
140
130
80
140
130
80
140
130
80
140
130
80
140
130
80
140
130
80
140
130
80
140
130
80
140
130
80
102
102
102
102
102
102
102
102
102
140
130
80
140
130
80
6
118
0
6
118
0
6
118
0
0
51
255
6
118
0
6
118
0
102
102
102
102
102
102
102
102
102
102
102
102
102
102
102
102
102
102
102
102
102
102
102
102
102
102
102
102
102
102
102
102
102
102
102
102
102
102
102
102
102
102
102
102
102
102
102
102
102
102
102
102
102
102
140
130
80
140
130
80
140
130
80
140
130
80
140
130
80
140
130
80
140
130
80
102
102
102
140
130
80
140
130
80
140
130
80
140
130
80
6
118
0
6
118
0
6
118
0
102
102
102
102
102
102
102
102
102
102
102
102
6
118
0
6
118
0
6
118
0
6
118
0
6
118
0
6
118
0
6
118
0
6
118
0
6
118
0
255
255
255
255
255
255
255
255
255
255
255
255
255
255
255
255
255
255
140
130
80
102
102
102
140
130
80
140
130
80
140
130
80
140
130
80
140
130
80
140
130
80
140
130
80
102
102
102
140
130
80
140
130
80
140
130
80
140
130
80
70
70
70
70
70
70
70
70
70
6
118
0
6
118
0
6
118
0
102
102
102
6
118
0
6
118
0
6
118
0
6
118
0
6
118
0
6
118
0
6
118
0
6
118
0
6
118
0
255
255
255
255
255
255
255
255
255
255
255
255
255
255
255
255
255
255
140
130
80
102
102
102
102
102
102
140
130
80
140
130
80
140
130
80
140
130
80
140
130
80
140
130
80
102
102
102
140
130
80
140
130
80
140
130
80
140
130
80
70
70
70
66
66
66
70
70
70
6
118
0
6
118
0
6
118
0
102
102
102
6
118
0
6
118
0
6
118
0
6
118
0
6
118
0
6
118
0
6
118
0
6
118
0
6
118
0
6
118
0
255
255
255
255
255
255
255
255
255
255
255
255
255
255
255
140
130
80
140
130
80
102
102
102
102
102
102
140
130
80
140
130
80
70
70
70
70
70
70
70
70
70
102
102
102
140
130
80
140
130
80
140
130
80
140
130
80
6
118
0
102
102
102
102
102
102
102
102
102
102
102
102
102
102
102
102
102
102
6
118
0
6
118
0
6
118
0
6
118
0
6
118
0
6
118
0
6
118
0
6
118
0
6
118
0
6
118
0
255
255
255
255
255
255
255
255
255
255
255
255
255
255
255
140
130
80
140
130
80
140
130
80
102
102
102
140
130
80
140
130
80
70
70
70
66
66
66
70
70
70
102
102
102
140
130
80
140
130
80
140
130
80
140
130
80
6
118
0
6
118
0
6
118
0
6
118
0
6
118
0
102
102
102
6
118
0
6
118
0
6
118
0
6
118
0
6
118
0
255
0
0
6
118
0
6
118
0
6
118
0
6
118
0
6
118
0
255
255
255
255
255
255
255
255
255
255
255
255
255
255
255
140
130
80
140
130
80
140
130
80
102
102
102
102
102
102
102
102
102
102
102
102
102
102
102
102
102
102
102
102
102
140
130
80
255
255
255
140
130
80
140
130
80
6
118
0
6
118
0
6
118
0
6
118
0
6
118
0
102
102
102
102
102
102
102
102
102
102
102
102
102
102
102
102
102
102
102
102
102
6
118
0
6
118
0
6
118
0
6
118
0
6
118
0
255
255
255
255
255
255
255
255
255
255
255
255
255
255
255
140
130
80
140
130
80
140
130
80
102
102
102
140
130
80
140
130
80
140
130
80
140
130
80
140
130
80
255
255
255
255
255
255
255
255
255
140
130
80
140
130
80
255
255
255
255
255
255
6
118
0
6
118
0
6
118
0
6
118
0
6
118
0
6
118
0
6
118
0
6
118
0
6
118
0
6
118
0
6
118
0
6
118
0
6
118
0
6
118
0
6
118
0
255
255
255
255
255
255
255
255
255
255
255
255
255
255
255
140
130
80
0
51
255
140
130
80
102
102
102
140
130
80
140
130
80
140
130
80
140
130
80
255
255
255
255
255
255
255
255
255
140
130
80
140
130
80
140
130
80
255
255
255
255
255
255
255
255
255
6
118
0
6
118
0
6
118
0
6
118
0
6
118
0
6
118
0
6
118
0
6
118
0
6
118
0
6
118
0
6
118
0
6
118
0
255
255
0
6
118
0
255
255
255
255
255
255
255
255
255
255
255
255
255
255
255
140
130
80
102
102
102
102
102
102
102
102
102
140
130
80
140
130
80
140
130
80
140
130
80
255
255
255
255
255
255
255
255
255
255
255
0
140
130
80
140
130
80
255
255
255
255
255
255
255
255
255
6
118
0
6
118
0
6
118
0
6
118
0
6
118
0
6
118
0
6
118
0
6
118
0
6
118
0
6
118
0
6
118
0
6
118
0
6
118
0
255
255
255
255
255
255
255
255
255
255
255
255
255
255
255
255
255
255
255
255
0
140
130
80
140
130
80
140
130
80
140
130
80
140
130
80
140
130
80
140
130
80
255
255
255
255
255
255
255
255
255
140
130
80
140
130
80
140
130
80
255
255
255
255
255
255
255
255
255
6
118
0
6
118
0
6
118
0
6
118
0
6
118
0
6
118
0
6
118
0
6
118
0
6
118
0
6
118
0
6
118
0
6
118
0
6
118
0
255
255
255
255
255
255
255
255
255
255
255
255
255
255
255
255
255
255
140
130
80
140
130
80
140
130
80
140
130
80
140
130
80
140
130
80
140
130
80
140
130
80
255
255
255
255
255
255
255
255
255
140
130
80
140
130
80
140
130
80
