P3
# CREATOR: GIMP PNM Filter Version 1.1
36 36
255
164
164
164
164
164
164
164
164
164
164
164
164
164
164
164
164
164
164
164
164
164
164
164
164
164
164
164
164
164
164
164
164
164
164
164
164
164
164
164
164
164
164
164
164
164
164
164
164
164
164
164
164
164
164
164
164
164
164
164
164
255
255
0
164
164
164
164
164
164
164
164
164
164
164
164
164
164
164
164
164
164
164
164
164
164
164
164
164
164
164
164
164
164
164
164
164
164
164
164
164
164
164
164
164
164
164
164
164
164
164
164
164
164
164
164
164
164
164
164
164
164
164
164
164
164
164
164
164
164
164
164
164
70
70
70
71
71
71
70
70
70
164
164
164
164
164
164
164
164
164
164
164
164
164
164
164
164
164
164
164
164
164
164
164
164
164
164
164
164
164
164
164
164
164
164
164
164
164
164
164
164
164
164
164
164
164
164
164
164
164
164
164
164
164
164
164
164
164
164
164
164
164
164
164
164
164
164
164
164
164
164
164
164
164
164
164
164
164
164
164
164
164
164
164
164
255
0
0
164
164
164
164
164
164
164
164
164
164
164
164
71
71
71
66
66
66
71
71
71
164
164
164
164
164
164
0
72
255
164
164
164
164
164
164
164
164
164
164
164
164
164
164
164
164
164
164
164
164
164
164
164
164
164
164
164
164
164
164
164
164
164
0
72
255
164
164
164
164
164
164
164
164
164
164
164
164
164
164
164
164
164
164
164
164
164
164
164
164
164
164
164
164
164
164
164
164
164
164
164
164
164
164
164
103
103
78
103
103
78
164
164
164
164
164
164
164
164
164
164
164
164
103
103
78
103
103
78
164
164
164
164
164
164
103
103
78
164
164
164
164
164
164
164
164
164
164
164
164
164
164
164
164
164
164
164
164
164
164
164
164
164
164
164
164
164
164
164
164
164
103
103
78
164
164
164
70
70
70
71
71
71
70
70
70
164
164
164
255
0
0
164
164
164
164
164
164
164
164
164
164
164
164
255
255
255
255
255
255
164
164
164
164
164
164
103
103
78
103
103
78
103
103
78
164
164
164
164
164
164
164
164
164
103
103
78
103
103
78
103
103
78
103
103
78
103
103
78
103
103
78
103
103
78
103
103
78
103
103
78
103
103
78
103
103
78
103
103
78
103
103
78
103
103
78
164
164
164
103
103
78
164
164
164
71
71
71
66
66
66
71
71
71
103
103
78
103
103
78
164
164
164
164
164
164
164
164
164
164
164
164
255
255
255
255
255
255
255
255
255
164
164
164
164
164
164
164
164
164
103
103
78
103
103
78
103
103
78
103
103
78
103
103
78
103
103
78
164
164
164
164
164
164
164
164
164
164
164
164
164
164
164
164
164
164
164
164
164
164
164
164
164
164
164
164
164
164
164
164
164
103
103
78
103
103
78
103
103
78
103
103
78
103
103
78
103
103
78
103
103
78
103
103
78
164
164
164
164
164
164
164
164
164
164
164
164
164
164
164
255
255
255
255
255
255
255
255
255
164
164
164
164
164
164
164
164
164
164
164
164
164
164
164
164
164
164
103
103
78
103
103
78
164
164
164
164
164
164
164
164
164
164
164
164
164
164
164
164
164
164
164
164
164
164
164
164
164
164
164
164
164
164
164
164
164
164
164
164
164
164
164
164
164
164
164
164
164
164
164
164
103
103
78
164
164
164
164
164
164
164
164
164
164
164
164
164
164
164
164
164
164
164
164
164
164
164
164
255
255
255
255
255
255
255
255
255
164
164
164
164
164
164
164
164
164
164
164
164
164
164
164
164
164
164
164
164
164
103
103
78
164
164
164
164
164
164
164
164
164
164
164
164
164
164
164
164
164
164
164
164
164
164
164
164
164
164
164
164
164
164
164
164
164
164
164
164
164
164
164
164
164
164
164
164
164
164
164
164
103
103
78
164
164
164
164
164
164
164
164
164
164
164
164
164
164
164
164
164
164
164
164
164
164
164
164
255
255
255
255
255
255
255
255
255
255
255
255
255
255
255
164
164
164
164
164
164
164
164
164
164
164
164
164
164
164
103
103
78
164
164
164
164
164
164
164
164
164
164
164
164
164
164
164
164
164
164
164
164
164
164
164
164
164
164
164
164
164
164
164
164
164
164
164
164
164
164
164
164
164
164
164
164
164
164
164
164
103
103
78
164
164
164
164
164
164
164
164
164
164
164
164
164
164
164
164
164
164
164
164
164
164
164
164
6
118
0
255
255
255
255
255
255
255
255
255
255
255
255
255
255
255
255
255
255
164
164
164
164
164
164
164
164
164
103
103
78
164
164
164
164
164
164
164
164
164
164
164
164
164
164
164
164
164
164
164
164
164
164
164
164
164
164
164
164
164
164
164
164
164
164
164
164
164
164
164
164
164
164
164
164
164
164
164
164
103
103
78
164
164
164
164
164
164
164
164
164
164
164
164
164
164
164
164
164
164
164
164
164
164
164
164
6
118
0
6
118
0
6
118
0
255
255
255
255
255
255
255
255
255
255
255
255
255
255
255
255
255
255
103
103
78
103
103
78
164
164
164
164
164
164
164
164
164
164
164
164
164
164
164
164
164
164
164
164
164
255
255
0
164
164
164
164
164
164
164
164
164
164
164
164
164
164
164
164
164
164
164
164
164
164
164
164
103
103
78
164
164
164
164
164
164
164
164
164
164
164
164
164
164
164
164
164
164
164
164
164
164
164
164
6
118
0
255
0
0
6
118
0
6
118
0
255
255
255
255
255
255
255
255
255
255
255
255
255
255
255
103
103
78
164
164
164
164
164
164
164
164
164
164
164
164
164
164
164
164
164
164
164
164
164
164
164
164
164
164
164
164
164
164
164
164
164
164
164
164
164
164
164
164
164
164
164
164
164
164
164
164
164
164
164
103
103
78
164
164
164
164
164
164
164
164
164
164
164
164
164
164
164
164
164
164
164
164
164
164
164
164
6
118
0
103
103
78
103
103
78
103
103
78
6
118
0
6
118
0
255
255
255
255
255
255
103
103
78
103
103
78
164
164
164
164
164
164
164
164
164
164
164
164
164
164
164
164
164
164
164
164
164
164
164
164
164
164
164
164
164
164
164
164
164
164
164
164
164
164
164
164
164
164
164
164
164
164
164
164
103
103
78
103
103
78
164
164
164
164
164
164
164
164
164
164
164
164
164
164
164
164
164
164
164
164
164
164
164
164
6
118
0
6
118
0
6
118
0
103
103
78
103
103
78
6
118
0
6
118
0
103
103
78
103
103
78
164
164
164
164
164
164
164
164
164
164
164
164
164
164
164
164
164
164
164
164
164
164
164
164
164
164
164
164
164
164
164
164
164
164
164
164
164
164
164
164
164
164
164
164
164
164
164
164
103
103
78
103
103
78
164
164
164
164
164
164
164
164
164
164
164
164
164
164
164
164
164
164
164
164
164
164
164
164
164
164
164
6
118
0
71
71
71
71
71
71
71
71
71
103
103
78
103
103
78
103
103
78
103
103
78
6
118
0
255
255
255
255
255
255
255
255
255
164
164
164
164
164
164
164
164
164
164
164
164
164
164
164
164
164
164
164
164
164
164
164
164
164
164
164
164
164
164
164
164
164
164
164
164
164
164
164
103
103
78
164
164
164
164
164
164
164
164
164
164
164
164
164
164
164
164
164
164
164
164
164
164
164
164
164
164
164
164
164
164
6
118
0
71
71
71
66
66
66
71
71
71
103
103
78
6
118
0
6
118
0
6
118
0
0
72
255
255
255
255
255
255
255
255
255
255
255
255
255
164
164
164
164
164
164
164
164
164
164
164
164
164
164
164
164
164
164
164
164
164
164
164
164
164
164
164
164
164
164
164
164
164
164
164
164
103
103
78
164
164
164
164
164
164
164
164
164
164
164
164
164
164
164
164
164
164
164
164
164
164
164
164
164
164
164
164
164
164
6
118
0
6
118
0
103
103
78
103
103
78
103
103
78
6
118
0
6
118
0
6
118
0
6
118
0
255
255
255
255
255
255
255
255
255
255
255
255
255
255
255
255
255
255
164
164
164
164
164
164
164
164
164
164
164
164
164
164
164
164
164
164
164
164
164
164
164
164
164
164
164
164
164
164
103
103
78
164
164
164
164
164
164
164
164
164
164
164
164
164
164
164
164
164
164
164
164
164
164
164
164
164
164
164
164
164
164
6
118
0
6
118
0
6
118
0
103
103
78
6
118
0
6
118
0
6
118
0
6
118
0
6
118
0
255
255
255
255
255
255
255
255
255
255
255
255
255
255
255
255
255
255
164
164
164
164
164
164
164
164
164
164
164
164
164
164
164
164
164
164
164
164
164
164
164
164
164
164
164
164
164
164
103
103
78
164
164
164
164
164
164
164
164
164
164
164
164
164
164
164
164
164
164
255
255
0
164
164
164
164
164
164
164
164
164
6
118
0
6
118
0
6
118
0
103
103
78
6
118
0
6
118
0
6
118
0
6
118
0
6
118
0
6
118
0
255
255
255
255
255
255
255
255
255
255
255
255
255
255
255
255
255
255
164
164
164
164
164
164
164
164
164
164
164
164
164
164
164
164
164
164
164
164
164
164
164
164
164
164
164
103
103
78
164
164
164
164
164
164
164
164
164
164
164
164
164
164
164
164
164
164
164
164
164
164
164
164
164
164
164
164
164
164
6
118
0
6
118
0
6
118
0
103
103
78
103
103
78
6
118
0
6
118
0
6
118
0
6
118
0
6
118
0
255
255
255
255
255
255
255
255
255
255
255
255
255
255
255
255
255
255
255
255
255
164
164
164
164
164
164
164
164
164
164
164
164
164
164
164
164
164
164
164
164
164
164
164
164
103
103
78
164
164
164
164
164
164
164
164
164
164
164
164
164
164
164
164
164
164
164
164
164
164
164
164
164
164
164
164
164
164
6
118
0
6
118
0
6
118
0
6
118
0
103
103
78
103
103
78
6
118
0
6
118
0
6
118
0
6
118
0
6
118
0
6
118
0
255
255
255
255
255
255
255
255
255
255
255
255
255
255
255
164
164
164
164
164
164
164
164
164
164
164
164
164
164
164
164
164
164
164
164
164
164
164
164
103
103
78
164
164
164
164
164
164
164
164
164
164
164
164
164
164
164
164
164
164
164
164
164
164
164
164
164
164
164
164
164
164
6
118
0
6
118
0
6
118
0
6
118
0
6
118
0
103
103
78
6
118
0
6
118
0
6
118
0
6
118
0
6
118
0
6
118
0
255
255
255
255
255
255
255
255
255
255
255
255
255
255
255
255
255
255
164
164
164
164
164
164
164
164
164
164
164
164
164
164
164
164
164
164
164
164
164
103
103
78
164
164
164
164
164
164
164
164
164
164
164
164
164
164
164
164
164
164
164
164
164
164
164
164
164
164
164
164
164
164
6
118
0
6
118
0
6
118
0
6
118
0
6
118
0
103
103
78
6
118
0
6
118
0
6
118
0
6
118
0
6
118
0
6
118
0
6
118
0
255
255
0
255
255
255
255
255
255
255
255
255
255
255
255
164
164
164
164
164
164
164
164
164
164
164
164
164
164
164
164
164
164
164
164
164
103
103
78
164
164
164
164
164
164
164
164
164
164
164
164
164
164
164
164
164
164
164
164
164
164
164
164
164
164
164
164
164
164
6
118
0
6
118
0
6
118
0
6
118
0
6
118
0
103
103
78
6
118
0
6
118
0
6
118
0
6
118
0
6
118
0
6
118
0
6
118
0
6
118
0
6
118
0
255
255
255
255
255
255
255
255
255
164
164
164
164
164
164
164
164
164
164
164
164
164
164
164
164
164
164
164
164
164
103
103
78
164
164
164
164
164
164
164
164
164
164
164
164
164
164
164
164
164
164
164
164
164
164
164
164
164
164
164
164
164
164
6
118
0
6
118
0
6
118
0
6
118
0
6
118
0
103
103
78
103
103
78
103
103
78
6
118
0
6
118
0
6
118
0
6
118
0
6
118
0
6
118
0
6
118
0
255
255
255
255
255
255
255
255
255
255
255
255
164
164
164
164
164
164
164
164
164
103
103
78
103
103
78
103
103
78
103
103
78
164
164
164
164
164
164
164
164
164
164
164
164
164
164
164
164
164
164
164
164
164
164
164
164
164
164
164
164
164
164
6
118
0
6
118
0
6
118
0
6
118
0
6
118
0
6
118
0
6
118
0
103
103
78
6
118
0
6
118
0
6
118
0
6
118
0
6
118
0
6
118
0
6
118
0
6
118
0
255
255
255
255
255
255
255
255
255
255
255
255
164
164
164
103
103
78
103
103
78
164
164
164
164
164
164
164
164
164
164
164
164
164
164
164
164
164
164
164
164
164
164
164
164
164
164
164
164
164
164
164
164
164
164
164
164
164
164
164
6
118
0
6
118
0
6
118
0
6
118
0
6
118
0
6
118
0
6
118
0
103
103
78
6
118
0
6
118
0
6
118
0
6
118
0
6
118
0
6
118
0
6
118
0
6
118
0
255
255
255
255
255
255
255
255
255
164
164
164
164
164
164
103
103
78
164
164
164
164
164
164
164
164
164
164
164
164
164
164
164
164
164
164
164
164
164
164
164
164
164
164
164
164
164
164
164
164
164
164
164
164
164
164
164
164
164
164
6
118
0
6
118
0
6
118
0
6
118
0
6
118
0
6
118
0
6
118
0
103
103
78
6
118
0
6
118
0
6
118
0
6
118
0
6
118
0
6
118
0
6
118
0
6
118
0
6
118
0
255
255
255
255
255
255
103
103
78
103
103
78
103
103
78
164
164
164
164
164
164
164
164
164
164
164
164
164
164
164
164
164
164
164
164
164
164
164
164
164
164
164
164
164
164
164
164
164
255
255
255
255
255
255
255
255
255
6
118
0
6
118
0
6
118
0
6
118
0
6
118
0
6
118
0
6
118
0
103
103
78
103
103
78
103
103
78
6
118
0
6
118
0
6
118
0
6
118
0
6
118
0
103
103
78
103
103
78
103
103
78
103
103
78
103
103
78
103
103
78
164
164
164
164
164
164
164
164
164
164
164
164
164
164
164
164
164
164
164
164
164
164
164
164
164
164
164
164
164
164
164
164
164
164
164
164
255
255
255
255
255
255
255
255
255
6
118
0
6
118
0
6
118
0
6
118
0
6
118
0
6
118
0
6
118
0
6
118
0
6
118
0
103
103
78
103
103
78
103
103
78
103
103
78
103
103
78
103
103
78
103
103
78
103
103
78
6
118
0
255
255
255
255
255
255
103
103
78
103
103
78
103
103
78
164
164
164
164
164
164
164
164
164
164
164
164
164
164
164
164
164
164
164
164
164
103
103
78
103
103
78
164
164
164
255
255
255
255
255
255
255
255
255
6
118
0
6
118
0
6
118
0
6
118
0
6
118
0
6
118
0
255
0
0
6
118
0
6
118
0
103
103
78
6
118
0
6
118
0
6
118
0
6
118
0
6
118
0
6
118
0
103
103
78
103
103
78
255
255
255
255
255
255
255
255
255
255
255
255
103
103
78
103
103
78
164
164
164
164
164
164
164
164
164
164
164
164
164
164
164
103
103
78
103
103
78
164
164
164
164
164
164
164
164
164
164
164
164
255
255
0
6
118
0
6
118
0
6
118
0
71
71
71
71
71
71
71
71
71
6
118
0
6
118
0
6
118
0
103
103
78
6
118
0
6
118
0
6
118
0
6
118
0
6
118
0
6
118
0
6
118
0
103
103
78
255
255
255
255
255
255
255
255
255
255
255
255
255
255
255
103
103
78
164
164
164
164
164
164
164
164
164
164
164
164
103
103
78
103
103
78
255
255
255
255
255
255
255
255
255
164
164
164
164
164
164
164
164
164
6
118
0
6
118
0
6
118
0
71
71
71
66
66
66
71
71
71
6
118
0
6
118
0
6
118
0
103
103
78
6
118
0
6
118
0
6
118
0
6
118
0
6
118
0
6
118
0
6
118
0
103
103
78
103
103
78
255
255
255
255
255
255
255
255
255
255
255
255
103
103
78
164
164
164
164
164
164
164
164
164
164
164
164
103
103
78
255
255
255
255
255
255
255
255
255
255
255
255
255
255
255
164
164
164
164
164
164
6
118
0
0
72
255
6
118
0
6
118
0
103
103
78
103
103
78
103
103
78
103
103
78
103
103
78
103
103
78
6
118
0
6
118
0
6
118
0
6
118
0
6
118
0
6
118
0
6
118
0
6
118
0
103
103
78
103
103
78
255
255
255
255
255
255
103
103
78
103
103
78
164
164
164
164
164
164
164
164
164
164
164
164
103
103
78
255
255
255
255
255
255
255
255
255
255
255
0
164
164
164
164
164
164
255
255
0
6
118
0
103
103
78
103
103
78
103
103
78
103
103
78
6
118
0
6
118
0
6
118
0
6
118
0
6
118
0
6
118
0
6
118
0
6
118
0
255
255
0
6
118
0
6
118
0
6
118
0
6
118
0
6
118
0
103
103
78
255
255
255
255
255
255
103
103
78
164
164
164
164
164
164
164
164
164
164
164
164
164
164
164
103
103
78
255
255
255
255
255
255
255
255
255
164
164
164
164
164
164
164
164
164
164
164
164
6
118
0
6
118
0
6
118
0
6
118
0
6
118
0
6
118
0
6
118
0
6
118
0
6
118
0
6
118
0
6
118
0
6
118
0
6
118
0
6
118
0
6
118
0
6
118
0
6
118
0
6
118
0
6
118
0
103
103
78
103
103
78
103
103
78
103
103
78
103
103
78
103
103
78
103
103
78
103
103
78
103
103
78
103
103
78
255
255
255
255
255
255
255
255
255
164
164
164
164
164
164
255
255
0
164
164
164
